<?xml version="1.0" encoding="UTF-8"?>
<svg xmlns="http://www.w3.org/2000/svg" xmlns:xlink="http://www.w3.org/1999/xlink" width="854" height="480" viewBox="0 0 854 480">
<defs>
<g>
<g id="glyph-0-0">
<path d="M 0.5625 -5.15625 L 0.5625 0 L 4.144531 0 L 4.144531 -0.578125 L 1.25 -0.578125 L 1.25 -2.363281 L 3.929688 -2.363281 L 3.929688 -2.941406 L 1.25 -2.941406 L 1.25 -4.578125 L 4.125 -4.578125 L 4.125 -5.15625 Z "/>
</g>
<g id="glyph-0-1">
<path d="M 0.578125 -5.15625 L 0.578125 0 L 1.226562 0 L 1.226562 -4.289062 L 1.242188 -4.289062 L 2.851562 0 L 3.4375 0 L 5.046875 -4.289062 L 5.0625 -4.289062 L 5.0625 0 L 5.714844 0 L 5.714844 -5.15625 L 4.773438 -5.15625 L 3.140625 -0.824219 L 1.515625 -5.15625 Z "/>
</g>
<g id="glyph-0-2">
<path d="M 1.25 -2.941406 L 1.25 -4.578125 L 2.621094 -4.578125 C 2.769531 -4.578125 2.910156 -4.570312 3.042969 -4.554688 C 3.175781 -4.539062 3.292969 -4.5 3.394531 -4.441406 C 3.496094 -4.382812 3.574219 -4.300781 3.632812 -4.195312 C 3.691406 -4.089844 3.71875 -3.945312 3.71875 -3.761719 C 3.71875 -3.488281 3.632812 -3.28125 3.464844 -3.144531 C 3.292969 -3.007812 3.011719 -2.941406 2.621094 -2.941406 Z M 0.5625 -5.15625 L 0.5625 0 L 3.054688 0 C 3.308594 0 3.535156 -0.0429688 3.730469 -0.125 C 3.925781 -0.210938 4.089844 -0.320312 4.222656 -0.457031 C 4.355469 -0.59375 4.453125 -0.753906 4.519531 -0.933594 C 4.589844 -1.109375 4.621094 -1.292969 4.621094 -1.480469 C 4.621094 -1.796875 4.539062 -2.066406 4.371094 -2.289062 C 4.203125 -2.511719 3.957031 -2.65625 3.640625 -2.722656 L 3.640625 -2.738281 C 3.886719 -2.835938 4.074219 -2.980469 4.207031 -3.179688 C 4.339844 -3.378906 4.40625 -3.617188 4.40625 -3.894531 C 4.40625 -4.152344 4.347656 -4.371094 4.230469 -4.550781 C 4.113281 -4.730469 3.96875 -4.867188 3.800781 -4.96875 C 3.722656 -5.015625 3.628906 -5.054688 3.519531 -5.078125 C 3.414062 -5.101562 3.296875 -5.121094 3.171875 -5.132812 C 3.046875 -5.144531 2.917969 -5.152344 2.792969 -5.152344 C 2.664062 -5.15625 2.542969 -5.15625 2.433594 -5.15625 Z M 1.25 -0.578125 L 1.25 -2.363281 L 2.816406 -2.363281 C 2.960938 -2.363281 3.101562 -2.347656 3.234375 -2.320312 C 3.371094 -2.296875 3.488281 -2.25 3.59375 -2.183594 C 3.695312 -2.121094 3.78125 -2.03125 3.84375 -1.921875 C 3.90625 -1.8125 3.9375 -1.671875 3.9375 -1.503906 C 3.9375 -1.214844 3.851562 -0.988281 3.679688 -0.824219 C 3.507812 -0.660156 3.273438 -0.578125 2.96875 -0.578125 Z "/>
</g>
<g id="glyph-0-3">
<path d="M 1.453125 -2.128906 L 2.324219 -4.535156 L 2.339844 -4.535156 L 3.199219 -2.128906 Z M 1.964844 -5.15625 L -0.0429688 0 L 0.65625 0 L 1.234375 -1.554688 L 3.417969 -1.554688 L 3.980469 0 L 4.738281 0 L 2.722656 -5.15625 Z "/>
</g>
<g id="glyph-0-4">
<path d="M 0.5625 -5.15625 L 0.5625 0 L 1.25 0 L 1.25 -2.203125 L 2.925781 -2.203125 C 3.09375 -2.203125 3.230469 -2.175781 3.328125 -2.128906 C 3.429688 -2.078125 3.511719 -2.007812 3.574219 -1.925781 C 3.636719 -1.839844 3.683594 -1.742188 3.710938 -1.628906 C 3.742188 -1.515625 3.765625 -1.394531 3.785156 -1.269531 C 3.808594 -1.144531 3.824219 -1.019531 3.828125 -0.886719 C 3.832031 -0.757812 3.835938 -0.636719 3.84375 -0.523438 C 3.847656 -0.410156 3.859375 -0.308594 3.875 -0.214844 C 3.890625 -0.125 3.925781 -0.0546875 3.972656 0 L 4.738281 0 C 4.664062 -0.0859375 4.613281 -0.1875 4.574219 -0.300781 C 4.539062 -0.414062 4.511719 -0.53125 4.492188 -0.65625 C 4.472656 -0.78125 4.460938 -0.910156 4.457031 -1.039062 C 4.453125 -1.167969 4.445312 -1.296875 4.433594 -1.421875 C 4.417969 -1.546875 4.398438 -1.667969 4.375 -1.785156 C 4.347656 -1.898438 4.304688 -2.003906 4.25 -2.097656 C 4.195312 -2.191406 4.121094 -2.273438 4.027344 -2.339844 C 3.933594 -2.40625 3.8125 -2.457031 3.660156 -2.484375 L 3.660156 -2.5 C 3.972656 -2.585938 4.203125 -2.746094 4.34375 -2.984375 C 4.484375 -3.21875 4.558594 -3.492188 4.558594 -3.804688 C 4.558594 -4.226562 4.417969 -4.554688 4.140625 -4.796875 C 3.863281 -5.035156 3.480469 -5.15625 2.988281 -5.15625 Z M 2.679688 -2.78125 L 1.25 -2.78125 L 1.25 -4.578125 L 2.953125 -4.578125 C 3.277344 -4.578125 3.511719 -4.496094 3.65625 -4.332031 C 3.800781 -4.167969 3.871094 -3.957031 3.871094 -3.699219 C 3.871094 -3.511719 3.839844 -3.355469 3.773438 -3.238281 C 3.707031 -3.121094 3.621094 -3.027344 3.515625 -2.957031 C 3.40625 -2.886719 3.277344 -2.839844 3.132812 -2.816406 C 2.988281 -2.792969 2.839844 -2.78125 2.679688 -2.78125 Z "/>
</g>
<g id="glyph-0-5">
<path d="M 4.421875 -0.644531 L 4.601562 0 L 5.035156 0 L 5.035156 -2.714844 L 2.773438 -2.714844 L 2.773438 -2.136719 L 4.421875 -2.136719 C 4.429688 -1.902344 4.398438 -1.683594 4.328125 -1.476562 C 4.253906 -1.273438 4.148438 -1.09375 4.003906 -0.941406 C 3.863281 -0.789062 3.6875 -0.671875 3.480469 -0.585938 C 3.273438 -0.5 3.035156 -0.453125 2.765625 -0.453125 C 2.476562 -0.453125 2.222656 -0.511719 2.003906 -0.625 C 1.785156 -0.738281 1.601562 -0.890625 1.453125 -1.078125 C 1.304688 -1.269531 1.1875 -1.488281 1.113281 -1.738281 C 1.035156 -1.984375 0.996094 -2.242188 0.996094 -2.511719 C 0.996094 -2.789062 1.03125 -3.054688 1.097656 -3.320312 C 1.164062 -3.582031 1.269531 -3.816406 1.410156 -4.019531 C 1.554688 -4.222656 1.738281 -4.390625 1.960938 -4.515625 C 2.183594 -4.640625 2.453125 -4.703125 2.765625 -4.703125 C 2.957031 -4.703125 3.140625 -4.679688 3.3125 -4.632812 C 3.484375 -4.585938 3.636719 -4.519531 3.769531 -4.425781 C 3.90625 -4.335938 4.019531 -4.21875 4.109375 -4.078125 C 4.199219 -3.933594 4.265625 -3.765625 4.296875 -3.566406 L 4.984375 -3.566406 C 4.9375 -3.871094 4.84375 -4.128906 4.710938 -4.34375 C 4.578125 -4.558594 4.417969 -4.734375 4.222656 -4.875 C 4.027344 -5.015625 3.804688 -5.117188 3.558594 -5.183594 C 3.308594 -5.246094 3.046875 -5.28125 2.765625 -5.28125 C 2.355469 -5.28125 2 -5.203125 1.695312 -5.050781 C 1.386719 -4.898438 1.132812 -4.695312 0.929688 -4.441406 C 0.722656 -4.1875 0.570312 -3.890625 0.464844 -3.550781 C 0.363281 -3.210938 0.3125 -2.851562 0.3125 -2.476562 C 0.3125 -2.140625 0.367188 -1.816406 0.476562 -1.503906 C 0.585938 -1.191406 0.75 -0.914062 0.960938 -0.671875 C 1.171875 -0.429688 1.429688 -0.238281 1.734375 -0.0976562 C 2.035156 0.0429688 2.382812 0.117188 2.765625 0.117188 C 3.070312 0.117188 3.371094 0.0546875 3.667969 -0.0625 C 3.96875 -0.179688 4.21875 -0.375 4.421875 -0.644531 Z "/>
</g>
<g id="glyph-0-6">
<path d="M 0.960938 -2.578125 C 0.960938 -2.839844 0.996094 -3.09375 1.0625 -3.347656 C 1.128906 -3.601562 1.234375 -3.828125 1.378906 -4.03125 C 1.523438 -4.234375 1.710938 -4.394531 1.9375 -4.519531 C 2.164062 -4.640625 2.429688 -4.703125 2.746094 -4.703125 C 3.058594 -4.703125 3.328125 -4.640625 3.554688 -4.519531 C 3.78125 -4.394531 3.964844 -4.234375 4.109375 -4.03125 C 4.253906 -3.828125 4.359375 -3.601562 4.425781 -3.347656 C 4.496094 -3.09375 4.527344 -2.839844 4.527344 -2.578125 C 4.527344 -2.316406 4.496094 -2.0625 4.425781 -1.808594 C 4.359375 -1.554688 4.253906 -1.328125 4.109375 -1.125 C 3.964844 -0.925781 3.78125 -0.761719 3.554688 -0.640625 C 3.328125 -0.515625 3.058594 -0.453125 2.746094 -0.453125 C 2.433594 -0.453125 2.160156 -0.515625 1.9375 -0.640625 C 1.710938 -0.761719 1.523438 -0.925781 1.378906 -1.125 C 1.234375 -1.328125 1.128906 -1.554688 1.0625 -1.808594 C 0.996094 -2.0625 0.960938 -2.320312 0.960938 -2.578125 Z M 0.273438 -2.578125 C 0.273438 -2.226562 0.328125 -1.890625 0.429688 -1.5625 C 0.535156 -1.238281 0.6875 -0.949219 0.894531 -0.699219 C 1.101562 -0.449219 1.359375 -0.25 1.667969 -0.105469 C 1.976562 0.0429688 2.335938 0.117188 2.746094 0.117188 C 3.15625 0.117188 3.511719 0.0429688 3.820312 -0.105469 C 4.128906 -0.25 4.386719 -0.449219 4.59375 -0.699219 C 4.800781 -0.949219 4.957031 -1.238281 5.058594 -1.5625 C 5.164062 -1.886719 5.214844 -2.226562 5.214844 -2.578125 C 5.214844 -2.929688 5.164062 -3.269531 5.058594 -3.59375 C 4.957031 -3.917969 4.800781 -4.207031 4.59375 -4.457031 C 4.386719 -4.707031 4.128906 -4.90625 3.820312 -5.054688 C 3.511719 -5.203125 3.152344 -5.28125 2.746094 -5.28125 C 2.335938 -5.28125 1.976562 -5.207031 1.667969 -5.054688 C 1.359375 -4.90625 1.101562 -4.707031 0.894531 -4.457031 C 0.6875 -4.207031 0.535156 -3.917969 0.429688 -3.59375 C 0.328125 -3.269531 0.273438 -2.929688 0.273438 -2.578125 Z "/>
</g>
<g id="glyph-0-7">
<path d="M 1.25 -0.578125 L 1.25 -4.578125 L 2.40625 -4.578125 C 2.722656 -4.578125 2.988281 -4.535156 3.207031 -4.445312 C 3.421875 -4.355469 3.601562 -4.226562 3.738281 -4.054688 C 3.875 -3.882812 3.972656 -3.675781 4.035156 -3.433594 C 4.09375 -3.191406 4.125 -2.914062 4.125 -2.605469 C 4.125 -2.289062 4.089844 -2.019531 4.027344 -1.792969 C 3.960938 -1.570312 3.878906 -1.382812 3.777344 -1.234375 C 3.675781 -1.085938 3.5625 -0.96875 3.433594 -0.882812 C 3.304688 -0.796875 3.179688 -0.726562 3.046875 -0.683594 C 2.917969 -0.636719 2.796875 -0.609375 2.679688 -0.597656 C 2.5625 -0.585938 2.46875 -0.578125 2.390625 -0.578125 Z M 0.5625 -5.15625 L 0.5625 0 L 2.332031 0 C 2.761719 0 3.132812 -0.0585938 3.445312 -0.179688 C 3.757812 -0.300781 4.015625 -0.476562 4.21875 -0.703125 C 4.421875 -0.933594 4.570312 -1.214844 4.664062 -1.550781 C 4.761719 -1.882812 4.808594 -2.269531 4.808594 -2.703125 C 4.808594 -3.53125 4.597656 -4.144531 4.167969 -4.550781 C 3.738281 -4.953125 3.128906 -5.15625 2.332031 -5.15625 Z "/>
</g>
<g id="glyph-0-8">
<rect x="0" y="0" width="0" height="0" mask="url(#mask-0)"/>
</g>
<g id="glyph-0-9">
<path d="M 3.554688 0 L 3.554688 -3.734375 L 2.941406 -3.734375 L 2.941406 -1.625 C 2.941406 -1.457031 2.917969 -1.300781 2.871094 -1.160156 C 2.824219 -1.015625 2.757812 -0.894531 2.664062 -0.789062 C 2.574219 -0.683594 2.460938 -0.597656 2.320312 -0.542969 C 2.183594 -0.484375 2.023438 -0.453125 1.835938 -0.453125 C 1.597656 -0.453125 1.414062 -0.523438 1.277344 -0.65625 C 1.144531 -0.792969 1.078125 -0.976562 1.078125 -1.207031 L 1.078125 -3.734375 L 0.460938 -3.734375 L 0.460938 -1.277344 C 0.460938 -1.074219 0.484375 -0.890625 0.523438 -0.726562 C 0.566406 -0.558594 0.636719 -0.417969 0.738281 -0.296875 C 0.839844 -0.175781 0.96875 -0.0820312 1.132812 -0.0195312 C 1.296875 0.046875 1.503906 0.078125 1.746094 0.078125 C 2.023438 0.078125 2.261719 0.0234375 2.464844 -0.0820312 C 2.664062 -0.191406 2.832031 -0.359375 2.960938 -0.59375 L 2.976562 -0.59375 L 2.976562 0 Z "/>
</g>
<g id="glyph-0-10">
<path d="M 0.460938 -3.734375 L 0.460938 0 L 1.078125 0 L 1.078125 -2.109375 C 1.078125 -2.277344 1.097656 -2.433594 1.144531 -2.574219 C 1.191406 -2.714844 1.257812 -2.839844 1.351562 -2.945312 C 1.441406 -3.050781 1.554688 -3.132812 1.695312 -3.191406 C 1.832031 -3.25 1.992188 -3.277344 2.179688 -3.277344 C 2.417969 -3.277344 2.601562 -3.210938 2.738281 -3.078125 C 2.871094 -2.941406 2.941406 -2.757812 2.941406 -2.527344 L 2.941406 0 L 3.554688 0 L 3.554688 -2.457031 C 3.554688 -2.660156 3.53125 -2.84375 3.492188 -3.007812 C 3.453125 -3.175781 3.378906 -3.316406 3.277344 -3.4375 C 3.175781 -3.558594 3.046875 -3.652344 2.882812 -3.71875 C 2.71875 -3.785156 2.511719 -3.820312 2.269531 -3.820312 C 1.714844 -3.820312 1.308594 -3.59375 1.054688 -3.140625 L 1.039062 -3.140625 L 1.039062 -3.734375 Z "/>
</g>
<g id="glyph-0-11">
<path d="M 1.316406 -3.734375 L 1.316406 -4.855469 L 0.699219 -4.855469 L 0.699219 -3.734375 L 0.0664062 -3.734375 L 0.0664062 -3.191406 L 0.699219 -3.191406 L 0.699219 -0.816406 C 0.699219 -0.644531 0.71875 -0.503906 0.75 -0.398438 C 0.785156 -0.292969 0.835938 -0.210938 0.90625 -0.152344 C 0.976562 -0.09375 1.066406 -0.0546875 1.179688 -0.03125 C 1.292969 -0.0117188 1.429688 0 1.589844 0 L 2.058594 0 L 2.058594 -0.542969 L 1.777344 -0.542969 C 1.679688 -0.542969 1.601562 -0.546875 1.542969 -0.550781 C 1.480469 -0.558594 1.433594 -0.574219 1.402344 -0.597656 C 1.367188 -0.621094 1.34375 -0.65625 1.332031 -0.699219 C 1.320312 -0.742188 1.316406 -0.800781 1.316406 -0.875 L 1.316406 -3.191406 L 2.058594 -3.191406 L 2.058594 -3.734375 Z "/>
</g>
<g id="glyph-0-12">
<path d="M 1.113281 -4.40625 L 1.113281 -5.15625 L 0.5 -5.15625 L 0.5 -4.40625 Z M 0.5 -3.734375 L 0.5 0 L 1.113281 0 L 1.113281 -3.734375 Z "/>
</g>
<g id="glyph-0-13">
<path d="M 0.5 -5.15625 L 0.5 0 L 1.113281 0 L 1.113281 -5.15625 Z "/>
</g>
<g id="glyph-0-14">
<path d="M 1.734375 -4.578125 L 1.734375 0 L 2.417969 0 L 2.417969 -4.578125 L 4.136719 -4.578125 L 4.136719 -5.15625 L 0.015625 -5.15625 L 0.015625 -4.578125 Z "/>
</g>
<g id="glyph-0-15">
<path d="M 3.054688 -2.222656 L 0.910156 -2.222656 C 0.917969 -2.367188 0.949219 -2.503906 1.003906 -2.632812 C 1.058594 -2.761719 1.128906 -2.871094 1.21875 -2.96875 C 1.3125 -3.066406 1.421875 -3.140625 1.550781 -3.195312 C 1.675781 -3.25 1.820312 -3.277344 1.980469 -3.277344 C 2.132812 -3.277344 2.273438 -3.25 2.402344 -3.195312 C 2.53125 -3.140625 2.640625 -3.066406 2.734375 -2.972656 C 2.828125 -2.878906 2.902344 -2.765625 2.957031 -2.636719 C 3.011719 -2.507812 3.046875 -2.367188 3.054688 -2.222656 Z M 3.648438 -1.183594 L 3.039062 -1.183594 C 2.988281 -0.9375 2.878906 -0.757812 2.710938 -0.636719 C 2.546875 -0.515625 2.332031 -0.453125 2.074219 -0.453125 C 1.871094 -0.453125 1.695312 -0.488281 1.546875 -0.554688 C 1.398438 -0.625 1.273438 -0.714844 1.175781 -0.828125 C 1.082031 -0.941406 1.011719 -1.070312 0.96875 -1.21875 C 0.925781 -1.363281 0.90625 -1.519531 0.910156 -1.683594 L 3.707031 -1.683594 C 3.714844 -1.910156 3.695312 -2.148438 3.644531 -2.398438 C 3.59375 -2.648438 3.5 -2.878906 3.371094 -3.089844 C 3.238281 -3.300781 3.0625 -3.476562 2.84375 -3.613281 C 2.625 -3.75 2.347656 -3.820312 2.015625 -3.820312 C 1.761719 -3.820312 1.523438 -3.773438 1.3125 -3.675781 C 1.097656 -3.578125 0.910156 -3.445312 0.753906 -3.273438 C 0.597656 -3.097656 0.476562 -2.894531 0.390625 -2.65625 C 0.304688 -2.421875 0.261719 -2.160156 0.261719 -1.878906 C 0.269531 -1.59375 0.3125 -1.332031 0.386719 -1.089844 C 0.460938 -0.847656 0.574219 -0.644531 0.722656 -0.46875 C 0.871094 -0.296875 1.054688 -0.160156 1.273438 -0.0664062 C 1.492188 0.03125 1.753906 0.078125 2.050781 0.078125 C 2.476562 0.078125 2.828125 -0.0273438 3.105469 -0.238281 C 3.386719 -0.449219 3.566406 -0.765625 3.648438 -1.183594 Z "/>
</g>
<g id="glyph-0-16">
<path d="M 0.441406 -3.734375 L 0.441406 0 L 1.054688 0 L 1.054688 -1.660156 C 1.054688 -1.902344 1.078125 -2.113281 1.125 -2.300781 C 1.175781 -2.484375 1.25 -2.644531 1.359375 -2.773438 C 1.464844 -2.902344 1.601562 -3.003906 1.777344 -3.070312 C 1.949219 -3.136719 2.160156 -3.171875 2.40625 -3.171875 L 2.40625 -3.820312 C 2.074219 -3.832031 1.796875 -3.761719 1.582031 -3.617188 C 1.363281 -3.472656 1.183594 -3.25 1.03125 -2.945312 L 1.019531 -2.945312 L 1.019531 -3.734375 Z "/>
</g>
<g id="glyph-0-17">
<path d="M 0.835938 -1.175781 L 0.222656 -1.175781 C 0.234375 -0.945312 0.28125 -0.75 0.367188 -0.589844 C 0.453125 -0.429688 0.570312 -0.296875 0.714844 -0.199219 C 0.859375 -0.101562 1.027344 -0.0273438 1.214844 0.015625 C 1.402344 0.0585938 1.597656 0.078125 1.804688 0.078125 C 1.992188 0.078125 2.183594 0.0625 2.371094 0.0234375 C 2.5625 -0.0117188 2.734375 -0.0742188 2.886719 -0.167969 C 3.039062 -0.257812 3.160156 -0.378906 3.253906 -0.527344 C 3.347656 -0.675781 3.394531 -0.863281 3.394531 -1.089844 C 3.394531 -1.269531 3.359375 -1.417969 3.289062 -1.539062 C 3.21875 -1.660156 3.128906 -1.757812 3.015625 -1.839844 C 2.902344 -1.917969 2.773438 -1.980469 2.625 -2.03125 C 2.476562 -2.078125 2.328125 -2.117188 2.175781 -2.152344 C 2.03125 -2.1875 1.886719 -2.21875 1.742188 -2.25 C 1.597656 -2.28125 1.464844 -2.320312 1.351562 -2.367188 C 1.234375 -2.410156 1.140625 -2.46875 1.066406 -2.539062 C 0.992188 -2.609375 0.953125 -2.695312 0.953125 -2.800781 C 0.953125 -2.898438 0.976562 -2.976562 1.027344 -3.039062 C 1.074219 -3.097656 1.136719 -3.144531 1.214844 -3.179688 C 1.289062 -3.21875 1.375 -3.242188 1.46875 -3.257812 C 1.5625 -3.273438 1.65625 -3.277344 1.746094 -3.277344 C 1.847656 -3.277344 1.949219 -3.269531 2.046875 -3.246094 C 2.144531 -3.226562 2.238281 -3.191406 2.320312 -3.140625 C 2.402344 -3.09375 2.46875 -3.03125 2.519531 -2.949219 C 2.574219 -2.871094 2.605469 -2.769531 2.613281 -2.652344 L 3.230469 -2.652344 C 3.214844 -2.878906 3.164062 -3.066406 3.085938 -3.21875 C 3.003906 -3.371094 2.894531 -3.488281 2.753906 -3.578125 C 2.617188 -3.667969 2.460938 -3.730469 2.28125 -3.765625 C 2.105469 -3.800781 1.910156 -3.820312 1.699219 -3.820312 C 1.535156 -3.820312 1.367188 -3.800781 1.203125 -3.757812 C 1.035156 -3.71875 0.886719 -3.65625 0.753906 -3.570312 C 0.621094 -3.488281 0.515625 -3.378906 0.429688 -3.242188 C 0.34375 -3.109375 0.304688 -2.945312 0.304688 -2.757812 C 0.304688 -2.519531 0.363281 -2.332031 0.484375 -2.195312 C 0.605469 -2.0625 0.753906 -1.957031 0.933594 -1.882812 C 1.117188 -1.808594 1.3125 -1.75 1.523438 -1.707031 C 1.734375 -1.667969 1.933594 -1.621094 2.113281 -1.570312 C 2.292969 -1.519531 2.445312 -1.453125 2.5625 -1.371094 C 2.683594 -1.289062 2.746094 -1.171875 2.746094 -1.011719 C 2.746094 -0.894531 2.714844 -0.800781 2.65625 -0.726562 C 2.597656 -0.652344 2.527344 -0.59375 2.4375 -0.554688 C 2.347656 -0.515625 2.25 -0.492188 2.144531 -0.476562 C 2.039062 -0.460938 1.9375 -0.453125 1.839844 -0.453125 C 1.714844 -0.453125 1.59375 -0.46875 1.476562 -0.492188 C 1.359375 -0.515625 1.253906 -0.554688 1.160156 -0.609375 C 1.066406 -0.664062 0.988281 -0.742188 0.933594 -0.835938 C 0.875 -0.929688 0.84375 -1.042969 0.835938 -1.175781 Z "/>
</g>
<g id="glyph-0-18">
<path d="M 1.574219 -2.925781 L 1.574219 -2.40625 C 1.691406 -2.421875 1.8125 -2.425781 1.941406 -2.425781 C 2.097656 -2.425781 2.238281 -2.40625 2.371094 -2.367188 C 2.503906 -2.324219 2.621094 -2.261719 2.714844 -2.175781 C 2.8125 -2.09375 2.890625 -1.988281 2.945312 -1.867188 C 3.003906 -1.746094 3.035156 -1.601562 3.035156 -1.445312 C 3.035156 -1.289062 3.003906 -1.152344 2.941406 -1.027344 C 2.882812 -0.90625 2.800781 -0.804688 2.703125 -0.71875 C 2.601562 -0.632812 2.480469 -0.570312 2.347656 -0.523438 C 2.210938 -0.476562 2.070312 -0.453125 1.921875 -0.453125 C 1.570312 -0.453125 1.300781 -0.558594 1.121094 -0.769531 C 0.9375 -0.980469 0.839844 -1.25 0.832031 -1.582031 L 0.214844 -1.582031 C 0.210938 -1.316406 0.25 -1.082031 0.328125 -0.875 C 0.40625 -0.667969 0.523438 -0.492188 0.671875 -0.351562 C 0.820312 -0.207031 1 -0.101562 1.214844 -0.0273438 C 1.425781 0.0429688 1.660156 0.078125 1.921875 0.078125 C 2.164062 0.078125 2.390625 0.046875 2.605469 -0.0195312 C 2.820312 -0.0820312 3.003906 -0.179688 3.164062 -0.3125 C 3.324219 -0.441406 3.449219 -0.601562 3.542969 -0.796875 C 3.636719 -0.992188 3.683594 -1.21875 3.683594 -1.472656 C 3.683594 -1.78125 3.609375 -2.046875 3.457031 -2.273438 C 3.304688 -2.5 3.070312 -2.648438 2.757812 -2.714844 L 2.757812 -2.730469 C 2.960938 -2.820312 3.128906 -2.957031 3.265625 -3.132812 C 3.398438 -3.3125 3.46875 -3.515625 3.46875 -3.75 C 3.46875 -3.984375 3.425781 -4.1875 3.347656 -4.363281 C 3.269531 -4.535156 3.160156 -4.679688 3.019531 -4.789062 C 2.878906 -4.898438 2.714844 -4.984375 2.523438 -5.039062 C 2.332031 -5.09375 2.128906 -5.121094 1.90625 -5.121094 C 1.652344 -5.121094 1.425781 -5.078125 1.230469 -5 C 1.035156 -4.917969 0.875 -4.804688 0.742188 -4.660156 C 0.613281 -4.515625 0.515625 -4.339844 0.445312 -4.136719 C 0.375 -3.9375 0.335938 -3.710938 0.324219 -3.46875 L 0.9375 -3.46875 C 0.9375 -3.617188 0.957031 -3.757812 0.996094 -3.894531 C 1.035156 -4.027344 1.09375 -4.144531 1.171875 -4.246094 C 1.253906 -4.347656 1.355469 -4.429688 1.476562 -4.488281 C 1.601562 -4.550781 1.742188 -4.578125 1.90625 -4.578125 C 2.167969 -4.578125 2.382812 -4.511719 2.558594 -4.375 C 2.730469 -4.238281 2.816406 -4.03125 2.816406 -3.753906 C 2.816406 -3.621094 2.789062 -3.5 2.738281 -3.394531 C 2.683594 -3.289062 2.613281 -3.199219 2.523438 -3.132812 C 2.433594 -3.0625 2.332031 -3.007812 2.214844 -2.972656 C 2.097656 -2.9375 1.972656 -2.917969 1.839844 -2.917969 L 1.710938 -2.917969 C 1.6875 -2.917969 1.664062 -2.917969 1.640625 -2.917969 C 1.621094 -2.917969 1.597656 -2.921875 1.574219 -2.925781 Z "/>
</g>
<g id="glyph-0-19">
<path d="M 0 -2.296875 L 0 -1.71875 L 3.609375 -1.71875 L 3.609375 -2.296875 Z "/>
</g>
<g id="glyph-0-20">
<path d="M 2.988281 -3.8125 L 3.605469 -3.8125 C 3.566406 -4.238281 3.421875 -4.5625 3.171875 -4.785156 C 2.921875 -5.007812 2.582031 -5.121094 2.160156 -5.121094 C 1.792969 -5.121094 1.492188 -5.042969 1.25 -4.890625 C 1.007812 -4.734375 0.816406 -4.53125 0.671875 -4.277344 C 0.527344 -4.019531 0.425781 -3.726562 0.363281 -3.398438 C 0.304688 -3.070312 0.273438 -2.726562 0.273438 -2.375 C 0.273438 -2.105469 0.296875 -1.828125 0.335938 -1.539062 C 0.375 -1.25 0.460938 -0.984375 0.585938 -0.742188 C 0.710938 -0.503906 0.886719 -0.304688 1.121094 -0.152344 C 1.351562 0.00390625 1.65625 0.078125 2.035156 0.078125 C 2.359375 0.078125 2.628906 0.0234375 2.847656 -0.0820312 C 3.066406 -0.191406 3.246094 -0.328125 3.375 -0.496094 C 3.507812 -0.660156 3.605469 -0.84375 3.660156 -1.046875 C 3.71875 -1.25 3.75 -1.445312 3.75 -1.632812 C 3.75 -1.867188 3.710938 -2.085938 3.640625 -2.289062 C 3.566406 -2.492188 3.464844 -2.667969 3.332031 -2.816406 C 3.199219 -2.964844 3.039062 -3.082031 2.84375 -3.167969 C 2.648438 -3.25 2.425781 -3.292969 2.179688 -3.292969 C 1.902344 -3.292969 1.65625 -3.242188 1.441406 -3.132812 C 1.226562 -3.027344 1.046875 -2.859375 0.902344 -2.621094 L 0.886719 -2.636719 C 0.894531 -2.832031 0.914062 -3.046875 0.945312 -3.273438 C 0.980469 -3.5 1.042969 -3.707031 1.128906 -3.902344 C 1.21875 -4.097656 1.34375 -4.261719 1.503906 -4.386719 C 1.660156 -4.515625 1.871094 -4.578125 2.128906 -4.578125 C 2.375 -4.578125 2.574219 -4.507812 2.722656 -4.371094 C 2.871094 -4.230469 2.960938 -4.042969 2.988281 -3.8125 Z M 2.066406 -2.75 C 2.238281 -2.75 2.390625 -2.71875 2.519531 -2.65625 C 2.648438 -2.59375 2.757812 -2.511719 2.847656 -2.410156 C 2.933594 -2.304688 2.996094 -2.183594 3.039062 -2.039062 C 3.078125 -1.898438 3.097656 -1.746094 3.097656 -1.589844 C 3.097656 -1.441406 3.074219 -1.296875 3.03125 -1.160156 C 2.984375 -1.023438 2.917969 -0.902344 2.832031 -0.792969 C 2.746094 -0.6875 2.636719 -0.605469 2.511719 -0.546875 C 2.382812 -0.484375 2.234375 -0.453125 2.066406 -0.453125 C 1.898438 -0.453125 1.746094 -0.484375 1.613281 -0.546875 C 1.480469 -0.605469 1.371094 -0.6875 1.28125 -0.789062 C 1.191406 -0.890625 1.125 -1.007812 1.078125 -1.148438 C 1.027344 -1.289062 1.003906 -1.4375 1.003906 -1.597656 C 1.003906 -1.753906 1.027344 -1.90625 1.074219 -2.046875 C 1.117188 -2.1875 1.1875 -2.3125 1.277344 -2.414062 C 1.371094 -2.519531 1.480469 -2.601562 1.609375 -2.660156 C 1.742188 -2.722656 1.890625 -2.75 2.066406 -2.75 Z "/>
</g>
<g id="glyph-0-21">
<path d="M 1.113281 -4.40625 L 1.113281 -5.15625 L 0.5 -5.15625 L 0.5 -4.40625 Z M 1.113281 0.46875 L 1.113281 -3.734375 L 0.5 -3.734375 L 0.5 0.367188 C 0.5 0.5625 0.472656 0.695312 0.425781 0.769531 C 0.378906 0.84375 0.285156 0.882812 0.152344 0.882812 L 0.0234375 0.882812 C 0.00390625 0.882812 -0.015625 0.878906 -0.03125 0.878906 C -0.0507812 0.875 -0.0703125 0.871094 -0.09375 0.867188 L -0.09375 1.394531 C 0.00390625 1.414062 0.105469 1.421875 0.214844 1.421875 C 0.492188 1.421875 0.710938 1.347656 0.871094 1.195312 C 1.03125 1.042969 1.113281 0.800781 1.113281 0.46875 Z "/>
</g>
<g id="glyph-0-22">
<path d="M 0.714844 -3.191406 L 0.714844 0 L 1.328125 0 L 1.328125 -3.191406 L 2.050781 -3.191406 L 2.050781 -3.734375 L 1.328125 -3.734375 L 1.328125 -4.253906 C 1.328125 -4.417969 1.371094 -4.527344 1.453125 -4.585938 C 1.535156 -4.644531 1.648438 -4.671875 1.796875 -4.671875 C 1.851562 -4.671875 1.910156 -4.667969 1.972656 -4.664062 C 2.035156 -4.65625 2.09375 -4.640625 2.144531 -4.621094 L 2.144531 -5.15625 C 2.085938 -5.175781 2.019531 -5.191406 1.945312 -5.199219 C 1.871094 -5.210938 1.804688 -5.214844 1.746094 -5.214844 C 1.410156 -5.214844 1.15625 -5.136719 0.980469 -4.980469 C 0.804688 -4.824219 0.714844 -4.59375 0.714844 -4.289062 L 0.714844 -3.734375 L 0.0859375 -3.734375 L 0.0859375 -3.191406 Z "/>
</g>
<g id="glyph-0-23">
<path d="M 1.929688 0.5 C 1.855469 0.683594 1.785156 0.835938 1.714844 0.960938 C 1.644531 1.085938 1.570312 1.1875 1.484375 1.265625 C 1.398438 1.347656 1.304688 1.40625 1.203125 1.441406 C 1.097656 1.476562 0.980469 1.496094 0.84375 1.496094 C 0.773438 1.496094 0.699219 1.492188 0.628906 1.480469 C 0.554688 1.472656 0.484375 1.453125 0.417969 1.429688 L 0.417969 0.867188 C 0.472656 0.890625 0.535156 0.910156 0.601562 0.929688 C 0.671875 0.945312 0.730469 0.953125 0.78125 0.953125 C 0.90625 0.953125 1.011719 0.921875 1.09375 0.863281 C 1.179688 0.804688 1.242188 0.71875 1.285156 0.605469 L 1.539062 -0.0234375 L 0.0585938 -3.734375 L 0.75 -3.734375 L 1.839844 -0.679688 L 1.855469 -0.679688 L 2.902344 -3.734375 L 3.554688 -3.734375 Z "/>
</g>
</g>
<image id="source-203" x="0" y="0" width="0" height="0"/>
<mask id="mask-0">
<use xlink:href="#source-203"/>
</mask>
</defs>
<g fill="rgb(100%, 41.960784%, 41.960784%)" fill-opacity="1">
<use xlink:href="#glyph-0-0" x="30" y="26.875977"/>
<use xlink:href="#glyph-0-1" x="34" y="26.875977"/>
<use xlink:href="#glyph-0-2" x="40" y="26.875977"/>
<use xlink:href="#glyph-0-3" x="45" y="26.875977"/>
<use xlink:href="#glyph-0-4" x="50" y="26.875977"/>
<use xlink:href="#glyph-0-5" x="55" y="26.875977"/>
<use xlink:href="#glyph-0-6" x="60" y="26.875977"/>
<use xlink:href="#glyph-0-0" x="65" y="26.875977"/>
<use xlink:href="#glyph-0-7" x="69" y="26.875977"/>
<use xlink:href="#glyph-0-8" x="74" y="26.875977"/>
</g>
<g fill="rgb(100%, 41.960784%, 41.960784%)" fill-opacity="1">
<use xlink:href="#glyph-0-9" x="30" y="33.918945"/>
<use xlink:href="#glyph-0-10" x="34" y="33.918945"/>
<use xlink:href="#glyph-0-11" x="38" y="33.918945"/>
<use xlink:href="#glyph-0-12" x="40" y="33.918945"/>
<use xlink:href="#glyph-0-13" x="42" y="33.918945"/>
<use xlink:href="#glyph-0-8" x="44" y="33.918945"/>
<use xlink:href="#glyph-0-14" x="46" y="33.918945"/>
<use xlink:href="#glyph-0-12" x="50" y="33.918945"/>
<use xlink:href="#glyph-0-15" x="52" y="33.918945"/>
<use xlink:href="#glyph-0-16" x="56" y="33.918945"/>
<use xlink:href="#glyph-0-17" x="58" y="33.918945"/>
<use xlink:href="#glyph-0-8" x="62" y="33.918945"/>
<use xlink:href="#glyph-0-18" x="64" y="33.918945"/>
<use xlink:href="#glyph-0-19" x="68" y="33.918945"/>
<use xlink:href="#glyph-0-20" x="72" y="33.918945"/>
<use xlink:href="#glyph-0-8" x="76" y="33.918945"/>
<use xlink:href="#glyph-0-21" x="78" y="33.918945"/>
<use xlink:href="#glyph-0-9" x="80" y="33.918945"/>
<use xlink:href="#glyph-0-17" x="84" y="33.918945"/>
<use xlink:href="#glyph-0-11" x="88" y="33.918945"/>
<use xlink:href="#glyph-0-12" x="90" y="33.918945"/>
<use xlink:href="#glyph-0-22" x="92" y="33.918945"/>
<use xlink:href="#glyph-0-23" x="94" y="33.918945"/>
<use xlink:href="#glyph-0-8" x="98" y="33.918945"/>
<use xlink:href="#glyph-0-12" x="100" y="33.918945"/>
<use xlink:href="#glyph-0-11" x="102" y="33.918945"/>
</g>
</svg>
