<?xml version="1.0" encoding="UTF-8"?>
<svg xmlns="http://www.w3.org/2000/svg" xmlns:xlink="http://www.w3.org/1999/xlink" width="854" height="480" viewBox="0 0 854 480">
<defs>
<g>
<g id="glyph-0-0">
<path d="M 2.074219 -1.753906 L 2.515625 -1.753906 C 2.5 -1.90625 2.457031 -2.039062 2.394531 -2.152344 C 2.332031 -2.265625 2.25 -2.355469 2.152344 -2.429688 C 2.054688 -2.503906 1.941406 -2.558594 1.8125 -2.59375 C 1.683594 -2.628906 1.546875 -2.644531 1.398438 -2.644531 C 1.195312 -2.644531 1.019531 -2.609375 0.863281 -2.539062 C 0.710938 -2.464844 0.585938 -2.367188 0.484375 -2.242188 C 0.382812 -2.117188 0.304688 -1.972656 0.253906 -1.800781 C 0.203125 -1.632812 0.179688 -1.453125 0.179688 -1.261719 C 0.179688 -1.066406 0.207031 -0.890625 0.257812 -0.726562 C 0.308594 -0.566406 0.386719 -0.425781 0.488281 -0.308594 C 0.589844 -0.191406 0.714844 -0.101562 0.867188 -0.0390625 C 1.019531 0.0234375 1.191406 0.0546875 1.390625 0.0546875 C 1.71875 0.0546875 1.980469 -0.03125 2.171875 -0.203125 C 2.363281 -0.378906 2.484375 -0.625 2.53125 -0.945312 L 2.09375 -0.945312 C 2.066406 -0.746094 1.996094 -0.589844 1.878906 -0.480469 C 1.757812 -0.371094 1.59375 -0.316406 1.386719 -0.316406 C 1.253906 -0.316406 1.136719 -0.339844 1.039062 -0.394531 C 0.941406 -0.449219 0.863281 -0.519531 0.804688 -0.609375 C 0.746094 -0.695312 0.699219 -0.796875 0.671875 -0.910156 C 0.644531 -1.023438 0.628906 -1.140625 0.628906 -1.261719 C 0.628906 -1.390625 0.644531 -1.515625 0.671875 -1.636719 C 0.699219 -1.757812 0.742188 -1.867188 0.800781 -1.960938 C 0.863281 -2.054688 0.945312 -2.128906 1.050781 -2.183594 C 1.152344 -2.242188 1.28125 -2.269531 1.433594 -2.269531 C 1.613281 -2.269531 1.757812 -2.226562 1.863281 -2.136719 C 1.972656 -2.046875 2.042969 -1.917969 2.074219 -1.753906 Z "/>
</g>
<g id="glyph-0-1">
<path d="M 2.460938 0 L 2.460938 -2.585938 L 2.035156 -2.585938 L 2.035156 -1.125 C 2.035156 -1.007812 2.019531 -0.902344 1.988281 -0.800781 C 1.957031 -0.703125 1.910156 -0.617188 1.84375 -0.546875 C 1.78125 -0.472656 1.703125 -0.414062 1.609375 -0.375 C 1.511719 -0.335938 1.398438 -0.316406 1.269531 -0.316406 C 1.105469 -0.316406 0.976562 -0.363281 0.886719 -0.453125 C 0.792969 -0.546875 0.746094 -0.675781 0.746094 -0.835938 L 0.746094 -2.585938 L 0.320312 -2.585938 L 0.320312 -0.886719 C 0.320312 -0.746094 0.335938 -0.617188 0.363281 -0.503906 C 0.390625 -0.386719 0.441406 -0.289062 0.511719 -0.203125 C 0.582031 -0.121094 0.671875 -0.0585938 0.785156 -0.0117188 C 0.898438 0.03125 1.039062 0.0546875 1.210938 0.0546875 C 1.398438 0.0546875 1.566406 0.015625 1.703125 -0.0585938 C 1.84375 -0.132812 1.960938 -0.25 2.050781 -0.410156 L 2.058594 -0.410156 L 2.058594 0 Z "/>
</g>
<g id="glyph-0-2">
<path d="M 0.910156 -2.585938 L 0.910156 -3.359375 L 0.484375 -3.359375 L 0.484375 -2.585938 L 0.046875 -2.585938 L 0.046875 -2.210938 L 0.484375 -2.210938 L 0.484375 -0.566406 C 0.484375 -0.445312 0.496094 -0.347656 0.519531 -0.273438 C 0.542969 -0.199219 0.578125 -0.144531 0.628906 -0.105469 C 0.675781 -0.0664062 0.738281 -0.0390625 0.816406 -0.0234375 C 0.894531 -0.0078125 0.988281 0 1.101562 0 L 1.425781 0 L 1.425781 -0.375 L 1.230469 -0.375 C 1.164062 -0.375 1.109375 -0.378906 1.066406 -0.382812 C 1.027344 -0.386719 0.992188 -0.398438 0.96875 -0.414062 C 0.945312 -0.429688 0.929688 -0.453125 0.921875 -0.484375 C 0.914062 -0.515625 0.910156 -0.554688 0.910156 -0.605469 L 0.910156 -2.210938 L 1.425781 -2.210938 L 1.425781 -2.585938 Z "/>
</g>
<g id="glyph-0-3">
<rect x="0" y="0" width="0" height="0" mask="url(#mask-0)"/>
</g>
<g id="glyph-0-4">
<path d="M 1.003906 -1.476562 L 1.609375 -3.140625 L 1.621094 -3.140625 L 2.214844 -1.476562 Z M 1.359375 -3.570312 L -0.03125 0 L 0.453125 0 L 0.855469 -1.074219 L 2.363281 -1.074219 L 2.753906 0 L 3.28125 0 L 1.886719 -3.570312 Z "/>
</g>
<g id="glyph-0-5">
<path d="M 0.386719 -3.929688 L 0.386719 1.066406 L 0.726562 1.066406 L 0.726562 -3.929688 Z "/>
</g>
<g id="glyph-0-6">
<path d="M 0.863281 -2.035156 L 0.863281 -3.171875 L 1.816406 -3.171875 C 1.917969 -3.171875 2.015625 -3.164062 2.109375 -3.152344 C 2.199219 -3.140625 2.28125 -3.113281 2.351562 -3.074219 C 2.421875 -3.035156 2.476562 -2.976562 2.515625 -2.90625 C 2.554688 -2.832031 2.574219 -2.730469 2.574219 -2.605469 C 2.574219 -2.414062 2.515625 -2.273438 2.398438 -2.175781 C 2.28125 -2.082031 2.085938 -2.035156 1.816406 -2.035156 Z M 0.390625 -3.570312 L 0.390625 0 L 2.113281 0 C 2.292969 0 2.449219 -0.0273438 2.582031 -0.0859375 C 2.71875 -0.144531 2.832031 -0.222656 2.921875 -0.316406 C 3.015625 -0.414062 3.082031 -0.523438 3.128906 -0.644531 C 3.175781 -0.769531 3.199219 -0.894531 3.199219 -1.023438 C 3.199219 -1.246094 3.140625 -1.433594 3.023438 -1.585938 C 2.90625 -1.738281 2.738281 -1.839844 2.519531 -1.886719 L 2.519531 -1.894531 C 2.691406 -1.960938 2.820312 -2.0625 2.914062 -2.203125 C 3.003906 -2.339844 3.050781 -2.503906 3.050781 -2.695312 C 3.050781 -2.875 3.007812 -3.027344 2.925781 -3.148438 C 2.84375 -3.273438 2.746094 -3.371094 2.628906 -3.441406 C 2.578125 -3.472656 2.511719 -3.5 2.4375 -3.515625 C 2.363281 -3.53125 2.28125 -3.542969 2.195312 -3.550781 C 2.109375 -3.558594 2.019531 -3.566406 1.933594 -3.566406 C 1.84375 -3.570312 1.761719 -3.570312 1.683594 -3.570312 Z M 0.863281 -0.398438 L 0.863281 -1.636719 L 1.949219 -1.636719 C 2.050781 -1.636719 2.148438 -1.625 2.238281 -1.609375 C 2.332031 -1.589844 2.414062 -1.558594 2.488281 -1.511719 C 2.558594 -1.46875 2.617188 -1.40625 2.660156 -1.328125 C 2.703125 -1.253906 2.726562 -1.15625 2.726562 -1.039062 C 2.726562 -0.839844 2.664062 -0.683594 2.546875 -0.570312 C 2.429688 -0.457031 2.265625 -0.398438 2.054688 -0.398438 Z "/>
</g>
</g>
<image id="source-295" x="0" y="0" width="0" height="0"/>
<mask id="mask-0">
<use xlink:href="#source-295"/>
</mask>
</defs>
<g fill="rgb(91.764706%, 91.764706%, 91.764706%)" fill-opacity="1">
<use xlink:href="#glyph-0-0" x="30" y="24.759766"/>
<use xlink:href="#glyph-0-1" x="33" y="24.759766"/>
<use xlink:href="#glyph-0-2" x="36" y="24.759766"/>
<use xlink:href="#glyph-0-3" x="38" y="24.759766"/>
<use xlink:href="#glyph-0-4" x="39" y="24.759766"/>
<use xlink:href="#glyph-0-5" x="42" y="24.759766"/>
<use xlink:href="#glyph-0-6" x="43" y="24.759766"/>
</g>
</svg>
