<?xml version="1.0" encoding="UTF-8"?>
<svg xmlns="http://www.w3.org/2000/svg" xmlns:xlink="http://www.w3.org/1999/xlink" width="854" height="480" viewBox="0 0 854 480">
<defs>
<g>
<g id="glyph-0-0">
<path d="M 1.464844 -3.875 L 1.464844 0 L 2.046875 0 L 2.046875 -3.875 L 3.5 -3.875 L 3.5 -4.363281 L 0.0117188 -4.363281 L 0.0117188 -3.875 Z "/>
</g>
<g id="glyph-0-1">
<path d="M 0.941406 -3.726562 L 0.941406 -4.363281 L 0.421875 -4.363281 L 0.421875 -3.726562 Z M 0.421875 -3.160156 L 0.421875 0 L 0.941406 0 L 0.941406 -3.160156 Z "/>
</g>
<g id="glyph-0-2">
<path d="M 2.585938 -1.882812 L 0.769531 -1.882812 C 0.777344 -2.003906 0.804688 -2.121094 0.847656 -2.226562 C 0.894531 -2.335938 0.957031 -2.429688 1.03125 -2.511719 C 1.109375 -2.59375 1.203125 -2.65625 1.3125 -2.703125 C 1.417969 -2.75 1.539062 -2.773438 1.675781 -2.773438 C 1.804688 -2.773438 1.921875 -2.75 2.03125 -2.703125 C 2.140625 -2.65625 2.234375 -2.59375 2.3125 -2.515625 C 2.390625 -2.433594 2.457031 -2.339844 2.503906 -2.230469 C 2.550781 -2.121094 2.578125 -2.003906 2.585938 -1.882812 Z M 3.085938 -1.003906 L 2.574219 -1.003906 C 2.527344 -0.796875 2.433594 -0.640625 2.292969 -0.539062 C 2.152344 -0.4375 1.972656 -0.386719 1.753906 -0.386719 C 1.582031 -0.386719 1.433594 -0.414062 1.308594 -0.46875 C 1.183594 -0.527344 1.078125 -0.605469 0.996094 -0.699219 C 0.914062 -0.796875 0.855469 -0.90625 0.820312 -1.03125 C 0.78125 -1.15625 0.765625 -1.285156 0.769531 -1.421875 L 3.132812 -1.421875 C 3.140625 -1.613281 3.125 -1.816406 3.082031 -2.027344 C 3.039062 -2.238281 2.960938 -2.4375 2.851562 -2.613281 C 2.738281 -2.792969 2.589844 -2.941406 2.40625 -3.058594 C 2.21875 -3.175781 1.984375 -3.230469 1.703125 -3.230469 C 1.488281 -3.230469 1.289062 -3.191406 1.109375 -3.109375 C 0.929688 -3.027344 0.769531 -2.914062 0.636719 -2.769531 C 0.503906 -2.621094 0.402344 -2.449219 0.328125 -2.25 C 0.257812 -2.050781 0.21875 -1.828125 0.21875 -1.589844 C 0.226562 -1.347656 0.265625 -1.125 0.328125 -0.921875 C 0.390625 -0.71875 0.484375 -0.542969 0.609375 -0.398438 C 0.738281 -0.25 0.894531 -0.136719 1.078125 -0.0546875 C 1.265625 0.0273438 1.484375 0.0664062 1.734375 0.0664062 C 2.09375 0.0664062 2.390625 -0.0234375 2.628906 -0.203125 C 2.863281 -0.382812 3.015625 -0.648438 3.085938 -1.003906 Z "/>
</g>
<g id="glyph-0-3">
<path d="M 0.371094 -3.160156 L 0.371094 0 L 0.890625 0 L 0.890625 -1.40625 C 0.890625 -1.609375 0.914062 -1.789062 0.953125 -1.945312 C 0.992188 -2.101562 1.058594 -2.238281 1.148438 -2.347656 C 1.238281 -2.457031 1.355469 -2.539062 1.503906 -2.597656 C 1.648438 -2.652344 1.828125 -2.683594 2.035156 -2.683594 L 2.035156 -3.230469 C 1.753906 -3.238281 1.519531 -3.183594 1.339844 -3.0625 C 1.15625 -2.941406 1 -2.75 0.875 -2.492188 L 0.863281 -2.492188 L 0.863281 -3.160156 Z "/>
</g>
<g id="glyph-0-4">
<rect x="0" y="0" width="0" height="0" mask="url(#mask-0)"/>
</g>
<g id="glyph-0-5">
<path d="M 3.109375 -3.8125 L 3.109375 -4.257812 L 0.304688 -4.257812 L 0.304688 -3.769531 L 2.578125 -3.769531 C 2.351562 -3.53125 2.136719 -3.265625 1.941406 -2.980469 C 1.742188 -2.695312 1.566406 -2.394531 1.417969 -2.074219 C 1.265625 -1.753906 1.144531 -1.421875 1.046875 -1.074219 C 0.953125 -0.726562 0.890625 -0.367188 0.867188 0 L 1.449219 0 C 1.46875 -0.339844 1.527344 -0.6875 1.621094 -1.042969 C 1.714844 -1.402344 1.835938 -1.75 1.984375 -2.089844 C 2.132812 -2.429688 2.300781 -2.746094 2.492188 -3.042969 C 2.683594 -3.339844 2.890625 -3.597656 3.109375 -3.8125 Z "/>
</g>
<g id="glyph-0-6">
<path d="M 1.226562 -1.800781 L 1.96875 -3.835938 L 1.980469 -3.835938 L 2.707031 -1.800781 Z M 1.660156 -4.363281 L -0.0351562 0 L 0.554688 0 L 1.042969 -1.3125 L 2.890625 -1.3125 L 3.367188 0 L 4.007812 0 L 2.304688 -4.363281 Z "/>
</g>
<g id="glyph-0-7">
<path d="M 1.515625 -2.242188 L 0 0 L 0.648438 0 L 1.859375 -1.800781 L 3.03125 0 L 3.738281 0 L 2.207031 -2.242188 L 3.648438 -4.363281 L 3 -4.363281 L 1.863281 -2.65625 L 0.777344 -4.363281 L 0.078125 -4.363281 Z "/>
</g>
<g id="glyph-0-8">
<path d="M 0.5 -4.363281 L 0.5 0 L 1.082031 0 L 1.082031 -4.363281 Z "/>
</g>
<g id="glyph-0-9">
<path d="M 3 -3.085938 L 3.550781 -3.085938 C 3.542969 -3.324219 3.496094 -3.53125 3.414062 -3.707031 C 3.328125 -3.878906 3.214844 -4.023438 3.070312 -4.136719 C 2.925781 -4.25 2.757812 -4.335938 2.566406 -4.386719 C 2.375 -4.441406 2.167969 -4.464844 1.941406 -4.464844 C 1.742188 -4.464844 1.550781 -4.441406 1.359375 -4.390625 C 1.171875 -4.339844 1 -4.261719 0.851562 -4.15625 C 0.703125 -4.054688 0.585938 -3.921875 0.496094 -3.761719 C 0.40625 -3.601562 0.359375 -3.410156 0.359375 -3.191406 C 0.359375 -2.992188 0.398438 -2.824219 0.480469 -2.691406 C 0.558594 -2.558594 0.664062 -2.453125 0.796875 -2.367188 C 0.929688 -2.285156 1.078125 -2.21875 1.246094 -2.167969 C 1.414062 -2.117188 1.582031 -2.070312 1.757812 -2.03125 C 1.929688 -1.992188 2.101562 -1.957031 2.265625 -1.917969 C 2.433594 -1.882812 2.582031 -1.835938 2.714844 -1.773438 C 2.847656 -1.714844 2.953125 -1.640625 3.035156 -1.546875 C 3.113281 -1.453125 3.152344 -1.328125 3.152344 -1.179688 C 3.152344 -1.019531 3.121094 -0.890625 3.054688 -0.789062 C 2.988281 -0.6875 2.90625 -0.605469 2.796875 -0.546875 C 2.691406 -0.488281 2.574219 -0.445312 2.441406 -0.421875 C 2.308594 -0.398438 2.175781 -0.386719 2.046875 -0.386719 C 1.882812 -0.386719 1.726562 -0.40625 1.570312 -0.445312 C 1.414062 -0.488281 1.28125 -0.550781 1.164062 -0.636719 C 1.046875 -0.722656 0.953125 -0.828125 0.882812 -0.960938 C 0.8125 -1.09375 0.777344 -1.253906 0.777344 -1.4375 L 0.226562 -1.4375 C 0.226562 -1.171875 0.273438 -0.941406 0.371094 -0.75 C 0.464844 -0.554688 0.597656 -0.394531 0.761719 -0.273438 C 0.925781 -0.148438 1.117188 -0.0546875 1.335938 0.0078125 C 1.554688 0.0664062 1.785156 0.0976562 2.027344 0.0976562 C 2.226562 0.0976562 2.429688 0.0742188 2.628906 0.0273438 C 2.832031 -0.0195312 3.015625 -0.09375 3.175781 -0.199219 C 3.339844 -0.300781 3.472656 -0.4375 3.578125 -0.601562 C 3.683594 -0.765625 3.734375 -0.964844 3.734375 -1.199219 C 3.734375 -1.414062 3.695312 -1.59375 3.613281 -1.734375 C 3.535156 -1.878906 3.429688 -1.996094 3.296875 -2.089844 C 3.164062 -2.183594 3.015625 -2.257812 2.847656 -2.3125 C 2.679688 -2.367188 2.511719 -2.414062 2.335938 -2.457031 C 2.164062 -2.496094 1.992188 -2.535156 1.828125 -2.570312 C 1.660156 -2.605469 1.511719 -2.648438 1.378906 -2.699219 C 1.246094 -2.753906 1.140625 -2.820312 1.058594 -2.90625 C 0.980469 -2.988281 0.941406 -3.097656 0.941406 -3.230469 C 0.941406 -3.375 0.96875 -3.492188 1.023438 -3.589844 C 1.078125 -3.6875 1.152344 -3.761719 1.242188 -3.820312 C 1.335938 -3.875 1.441406 -3.917969 1.558594 -3.941406 C 1.675781 -3.964844 1.796875 -3.976562 1.917969 -3.976562 C 2.21875 -3.976562 2.46875 -3.90625 2.660156 -3.765625 C 2.855469 -3.625 2.96875 -3.398438 3 -3.085938 Z "/>
</g>
<g id="glyph-0-10">
<path d="M 0.304688 -1.941406 L 0.304688 -1.453125 L 2.070312 -1.453125 L 2.070312 -1.941406 Z "/>
</g>
<g id="glyph-0-11">
<path d="M 0.476562 -4.363281 L 0.476562 0 L 3.507812 0 L 3.507812 -0.488281 L 1.058594 -0.488281 L 1.058594 -2 L 3.324219 -2 L 3.324219 -2.488281 L 1.058594 -2.488281 L 1.058594 -3.875 L 3.488281 -3.875 L 3.488281 -4.363281 Z "/>
</g>
<g id="glyph-0-12">
<path d="M 0.46875 -4.363281 L 0.46875 0 L 1.019531 0 L 1.019531 -3.5 L 1.03125 -3.5 L 3.3125 0 L 3.949219 0 L 3.949219 -4.363281 L 3.398438 -4.363281 L 3.398438 -0.824219 L 3.386719 -0.824219 L 1.085938 -4.363281 Z "/>
</g>
<g id="glyph-0-13">
<path d="M 0.476562 -4.363281 L 0.476562 0 L 1.058594 0 L 1.058594 -1.863281 L 2.476562 -1.863281 C 2.617188 -1.863281 2.730469 -1.84375 2.816406 -1.800781 C 2.902344 -1.757812 2.972656 -1.699219 3.023438 -1.628906 C 3.078125 -1.558594 3.117188 -1.472656 3.140625 -1.378906 C 3.164062 -1.28125 3.183594 -1.179688 3.203125 -1.074219 C 3.222656 -0.96875 3.234375 -0.863281 3.238281 -0.75 C 3.242188 -0.640625 3.246094 -0.539062 3.25 -0.441406 C 3.253906 -0.347656 3.265625 -0.261719 3.277344 -0.183594 C 3.292969 -0.105469 3.320312 -0.0429688 3.359375 0 L 4.007812 0 C 3.945312 -0.0742188 3.902344 -0.15625 3.871094 -0.253906 C 3.839844 -0.347656 3.816406 -0.449219 3.800781 -0.554688 C 3.785156 -0.660156 3.773438 -0.769531 3.769531 -0.878906 C 3.765625 -0.988281 3.761719 -1.097656 3.75 -1.203125 C 3.738281 -1.308594 3.722656 -1.410156 3.699219 -1.507812 C 3.675781 -1.605469 3.644531 -1.695312 3.597656 -1.773438 C 3.550781 -1.855469 3.484375 -1.921875 3.40625 -1.980469 C 3.328125 -2.035156 3.222656 -2.078125 3.097656 -2.101562 L 3.097656 -2.113281 C 3.363281 -2.1875 3.554688 -2.324219 3.675781 -2.523438 C 3.796875 -2.722656 3.855469 -2.957031 3.855469 -3.21875 C 3.855469 -3.574219 3.738281 -3.855469 3.503906 -4.058594 C 3.269531 -4.261719 2.945312 -4.363281 2.53125 -4.363281 Z M 2.265625 -2.351562 L 1.058594 -2.351562 L 1.058594 -3.875 L 2.5 -3.875 C 2.773438 -3.875 2.96875 -3.804688 3.09375 -3.667969 C 3.214844 -3.527344 3.273438 -3.347656 3.273438 -3.128906 C 3.273438 -2.96875 3.246094 -2.839844 3.191406 -2.742188 C 3.136719 -2.640625 3.0625 -2.5625 2.972656 -2.503906 C 2.882812 -2.445312 2.773438 -2.402344 2.652344 -2.382812 C 2.53125 -2.363281 2.402344 -2.351562 2.265625 -2.351562 Z "/>
</g>
<g id="glyph-0-14">
<path d="M 2.277344 -1.785156 L 3.949219 -4.363281 L 3.289062 -4.363281 L 2.011719 -2.285156 L 0.703125 -4.363281 L 0.0117188 -4.363281 L 1.699219 -1.785156 L 1.699219 0 L 2.277344 0 Z "/>
</g>
</g>
<image id="source-67" x="0" y="0" width="0" height="0"/>
<mask id="mask-0">
<use xlink:href="#source-67"/>
</mask>
</defs>
<g fill="rgb(91.764706%, 91.764706%, 91.764706%)" fill-opacity="1">
<use xlink:href="#glyph-0-0" x="30" y="25.817383"/>
<use xlink:href="#glyph-0-1" x="34" y="25.817383"/>
<use xlink:href="#glyph-0-2" x="35" y="25.817383"/>
<use xlink:href="#glyph-0-3" x="38" y="25.817383"/>
<use xlink:href="#glyph-0-4" x="40" y="25.817383"/>
<use xlink:href="#glyph-0-5" x="42" y="25.817383"/>
<use xlink:href="#glyph-0-4" x="45" y="25.817383"/>
</g>
<g fill="rgb(91.764706%, 91.764706%, 91.764706%)" fill-opacity="1">
<use xlink:href="#glyph-0-6" x="30" y="31.774414"/>
<use xlink:href="#glyph-0-7" x="34" y="31.774414"/>
<use xlink:href="#glyph-0-8" x="38" y="31.774414"/>
<use xlink:href="#glyph-0-9" x="40" y="31.774414"/>
<use xlink:href="#glyph-0-10" x="44" y="31.774414"/>
<use xlink:href="#glyph-0-11" x="46" y="31.774414"/>
<use xlink:href="#glyph-0-12" x="50" y="31.774414"/>
<use xlink:href="#glyph-0-0" x="54" y="31.774414"/>
<use xlink:href="#glyph-0-13" x="58" y="31.774414"/>
<use xlink:href="#glyph-0-14" x="62" y="31.774414"/>
</g>
</svg>
