<?xml version="1.0" encoding="UTF-8"?>
<svg xmlns="http://www.w3.org/2000/svg" xmlns:xlink="http://www.w3.org/1999/xlink" width="854" height="480" viewBox="0 0 854 480">
<defs>
<g>
<g id="glyph-0-0">
<path d="M 9.640625 0 L 12.1875 -9.519531 L 10.917969 -9.519531 L 8.988281 -1.601562 L 8.960938 -1.601562 L 6.851562 -9.519531 L 5.480469 -9.519531 L 3.347656 -1.601562 L 3.320312 -1.601562 L 1.453125 -9.519531 L 0.160156 -9.519531 L 2.601562 0 L 3.917969 0 L 6.121094 -8 L 6.148438 -8 L 8.320312 0 Z "/>
</g>
<g id="glyph-0-1">
<path d="M 0.851562 -9.519531 L 0.851562 0 L 1.988281 0 L 1.988281 -3.894531 C 1.988281 -4.203125 2.027344 -4.492188 2.113281 -4.753906 C 2.199219 -5.015625 2.324219 -5.246094 2.492188 -5.441406 C 2.660156 -5.636719 2.875 -5.785156 3.125 -5.894531 C 3.378906 -6 3.679688 -6.054688 4.027344 -6.054688 C 4.460938 -6.054688 4.804688 -5.929688 5.054688 -5.679688 C 5.300781 -5.429688 5.425781 -5.09375 5.425781 -4.667969 L 5.425781 0 L 6.558594 0 L 6.558594 -4.535156 C 6.558594 -4.90625 6.523438 -5.246094 6.445312 -5.554688 C 6.371094 -5.859375 6.238281 -6.125 6.054688 -6.347656 C 5.867188 -6.570312 5.621094 -6.742188 5.320312 -6.867188 C 5.019531 -6.992188 4.640625 -7.054688 4.1875 -7.054688 C 3.984375 -7.054688 3.769531 -7.03125 3.554688 -6.988281 C 3.335938 -6.941406 3.125 -6.875 2.925781 -6.78125 C 2.726562 -6.6875 2.546875 -6.566406 2.386719 -6.417969 C 2.226562 -6.273438 2.101562 -6.09375 2.011719 -5.878906 L 1.988281 -5.878906 L 1.988281 -9.519531 Z "/>
</g>
<g id="glyph-0-2">
<path d="M 6.960938 -0.0273438 C 6.765625 0.0898438 6.492188 0.148438 6.148438 0.148438 C 5.855469 0.148438 5.621094 0.0625 5.445312 -0.101562 C 5.273438 -0.265625 5.1875 -0.535156 5.1875 -0.90625 C 4.875 -0.53125 4.511719 -0.265625 4.101562 -0.101562 C 3.6875 0.0625 3.238281 0.148438 2.761719 0.148438 C 2.449219 0.148438 2.152344 0.109375 1.875 0.0390625 C 1.59375 -0.03125 1.351562 -0.140625 1.148438 -0.292969 C 0.941406 -0.445312 0.78125 -0.640625 0.660156 -0.886719 C 0.539062 -1.132812 0.480469 -1.425781 0.480469 -1.773438 C 0.480469 -2.164062 0.546875 -2.484375 0.679688 -2.734375 C 0.8125 -2.984375 0.988281 -3.183594 1.207031 -3.339844 C 1.425781 -3.496094 1.671875 -3.613281 1.953125 -3.691406 C 2.234375 -3.773438 2.519531 -3.839844 2.8125 -3.894531 C 3.125 -3.957031 3.417969 -4.003906 3.699219 -4.035156 C 3.980469 -4.066406 4.226562 -4.109375 4.441406 -4.167969 C 4.652344 -4.226562 4.820312 -4.308594 4.945312 -4.417969 C 5.070312 -4.53125 5.132812 -4.691406 5.132812 -4.90625 C 5.132812 -5.15625 5.085938 -5.355469 4.992188 -5.507812 C 4.898438 -5.65625 4.78125 -5.773438 4.632812 -5.851562 C 4.488281 -5.933594 4.320312 -5.988281 4.140625 -6.011719 C 3.957031 -6.039062 3.777344 -6.054688 3.601562 -6.054688 C 3.121094 -6.054688 2.71875 -5.960938 2.398438 -5.78125 C 2.078125 -5.597656 1.90625 -5.253906 1.878906 -4.746094 L 0.746094 -4.746094 C 0.765625 -5.171875 0.851562 -5.53125 1.011719 -5.828125 C 1.171875 -6.121094 1.386719 -6.359375 1.652344 -6.539062 C 1.917969 -6.722656 2.222656 -6.851562 2.566406 -6.933594 C 2.910156 -7.011719 3.277344 -7.054688 3.667969 -7.054688 C 3.976562 -7.054688 4.285156 -7.03125 4.59375 -6.988281 C 4.898438 -6.941406 5.175781 -6.851562 5.425781 -6.714844 C 5.675781 -6.574219 5.875 -6.382812 6.027344 -6.132812 C 6.179688 -5.882812 6.253906 -5.558594 6.253906 -5.160156 L 6.253906 -1.613281 C 6.253906 -1.347656 6.269531 -1.152344 6.300781 -1.027344 C 6.332031 -0.902344 6.433594 -0.839844 6.613281 -0.839844 C 6.710938 -0.839844 6.828125 -0.863281 6.960938 -0.90625 Z M 5.121094 -3.558594 C 4.976562 -3.453125 4.789062 -3.375 4.558594 -3.328125 C 4.328125 -3.277344 4.085938 -3.238281 3.832031 -3.207031 C 3.578125 -3.175781 3.324219 -3.140625 3.066406 -3.101562 C 2.808594 -3.058594 2.578125 -2.996094 2.375 -2.90625 C 2.167969 -2.816406 2.003906 -2.691406 1.875 -2.527344 C 1.746094 -2.363281 1.679688 -2.136719 1.679688 -1.851562 C 1.679688 -1.667969 1.71875 -1.507812 1.792969 -1.378906 C 1.867188 -1.25 1.964844 -1.148438 2.085938 -1.066406 C 2.207031 -0.988281 2.347656 -0.929688 2.507812 -0.894531 C 2.667969 -0.859375 2.835938 -0.839844 3.011719 -0.839844 C 3.386719 -0.839844 3.707031 -0.890625 3.972656 -0.992188 C 4.238281 -1.09375 4.457031 -1.222656 4.625 -1.378906 C 4.792969 -1.535156 4.917969 -1.703125 5 -1.886719 C 5.078125 -2.070312 5.121094 -2.238281 5.121094 -2.398438 Z "/>
</g>
<g id="glyph-0-3">
<path d="M 2.425781 -6.894531 L 2.425781 -8.960938 L 1.292969 -8.960938 L 1.292969 -6.894531 L 0.121094 -6.894531 L 0.121094 -5.894531 L 1.292969 -5.894531 L 1.292969 -1.507812 C 1.292969 -1.1875 1.324219 -0.929688 1.386719 -0.734375 C 1.449219 -0.539062 1.542969 -0.386719 1.671875 -0.28125 C 1.800781 -0.171875 1.972656 -0.101562 2.179688 -0.0585938 C 2.390625 -0.0195312 2.640625 0 2.933594 0 L 3.800781 0 L 3.800781 -1 L 3.28125 -1 C 3.101562 -1 2.957031 -1.007812 2.847656 -1.019531 C 2.734375 -1.03125 2.648438 -1.0625 2.585938 -1.105469 C 2.523438 -1.152344 2.480469 -1.214844 2.460938 -1.292969 C 2.4375 -1.375 2.425781 -1.480469 2.425781 -1.613281 L 2.425781 -5.894531 L 3.800781 -5.894531 L 3.800781 -6.894531 Z "/>
</g>
<g id="glyph-0-4">
<rect x="0" y="0" width="0" height="0" mask="url(#mask-0)"/>
</g>
<g id="glyph-0-5">
<path d="M 1.09375 -9.519531 L 1.09375 0 L 2.359375 0 L 2.359375 -9.519531 Z "/>
</g>
<g id="glyph-0-6">
<path d="M 1.546875 -2.171875 L 0.414062 -2.171875 C 0.429688 -1.746094 0.519531 -1.382812 0.679688 -1.085938 C 0.839844 -0.789062 1.054688 -0.550781 1.320312 -0.367188 C 1.585938 -0.183594 1.894531 -0.0546875 2.238281 0.0273438 C 2.585938 0.105469 2.949219 0.148438 3.332031 0.148438 C 3.679688 0.148438 4.027344 0.113281 4.378906 0.046875 C 4.730469 -0.0195312 5.046875 -0.136719 5.328125 -0.308594 C 5.605469 -0.476562 5.832031 -0.699219 6.007812 -0.972656 C 6.179688 -1.25 6.265625 -1.59375 6.265625 -2.011719 C 6.265625 -2.339844 6.203125 -2.617188 6.074219 -2.839844 C 5.945312 -3.0625 5.777344 -3.246094 5.566406 -3.394531 C 5.359375 -3.539062 5.117188 -3.65625 4.847656 -3.746094 C 4.574219 -3.835938 4.296875 -3.910156 4.011719 -3.972656 C 3.746094 -4.035156 3.480469 -4.09375 3.214844 -4.152344 C 2.945312 -4.210938 2.707031 -4.28125 2.492188 -4.367188 C 2.28125 -4.453125 2.105469 -4.558594 1.964844 -4.6875 C 1.828125 -4.816406 1.761719 -4.976562 1.761719 -5.171875 C 1.761719 -5.351562 1.804688 -5.496094 1.894531 -5.605469 C 1.984375 -5.71875 2.097656 -5.804688 2.238281 -5.875 C 2.382812 -5.941406 2.539062 -5.988281 2.714844 -6.011719 C 2.886719 -6.039062 3.058594 -6.054688 3.226562 -6.054688 C 3.414062 -6.054688 3.597656 -6.03125 3.78125 -5.992188 C 3.960938 -5.953125 4.128906 -5.890625 4.28125 -5.800781 C 4.429688 -5.710938 4.554688 -5.59375 4.652344 -5.445312 C 4.75 -5.300781 4.808594 -5.117188 4.828125 -4.894531 L 5.960938 -4.894531 C 5.933594 -5.3125 5.84375 -5.660156 5.691406 -5.941406 C 5.542969 -6.21875 5.339844 -6.441406 5.085938 -6.605469 C 4.832031 -6.769531 4.542969 -6.886719 4.214844 -6.953125 C 3.886719 -7.019531 3.523438 -7.054688 3.132812 -7.054688 C 2.832031 -7.054688 2.527344 -7.015625 2.21875 -6.941406 C 1.914062 -6.863281 1.636719 -6.75 1.394531 -6.59375 C 1.148438 -6.4375 0.949219 -6.234375 0.792969 -5.988281 C 0.636719 -5.738281 0.558594 -5.441406 0.558594 -5.09375 C 0.558594 -4.648438 0.671875 -4.300781 0.894531 -4.054688 C 1.117188 -3.804688 1.394531 -3.609375 1.726562 -3.472656 C 2.058594 -3.335938 2.421875 -3.230469 2.8125 -3.152344 C 3.203125 -3.078125 3.566406 -2.992188 3.898438 -2.898438 C 4.234375 -2.804688 4.511719 -2.683594 4.734375 -2.535156 C 4.957031 -2.382812 5.066406 -2.160156 5.066406 -1.867188 C 5.066406 -1.652344 5.011719 -1.476562 4.90625 -1.339844 C 4.800781 -1.203125 4.664062 -1.097656 4.5 -1.027344 C 4.335938 -0.957031 4.15625 -0.90625 3.960938 -0.878906 C 3.765625 -0.851562 3.578125 -0.839844 3.398438 -0.839844 C 3.167969 -0.839844 2.945312 -0.863281 2.726562 -0.90625 C 2.507812 -0.949219 2.3125 -1.023438 2.140625 -1.125 C 1.96875 -1.226562 1.828125 -1.367188 1.71875 -1.539062 C 1.613281 -1.714844 1.554688 -1.925781 1.546875 -2.171875 Z "/>
</g>
<g id="glyph-0-7">
<path d="M 1.039062 -9.519531 L 1.039062 0 L 7.347656 0 L 7.347656 -1.066406 L 2.304688 -1.066406 L 2.304688 -9.519531 Z "/>
</g>
<g id="glyph-0-8">
<path d="M 2.054688 -8.132812 L 2.054688 -9.519531 L 0.921875 -9.519531 L 0.921875 -8.132812 Z M 0.921875 -6.894531 L 0.921875 0 L 2.054688 0 L 2.054688 -6.894531 Z "/>
</g>
<g id="glyph-0-9">
<path d="M 3.960938 0 L 6.480469 -6.894531 L 5.292969 -6.894531 L 3.414062 -1.148438 L 3.386719 -1.148438 L 1.453125 -6.894531 L 0.1875 -6.894531 L 2.746094 0 Z "/>
</g>
<g id="glyph-0-10">
<path d="M 5.640625 -4.105469 L 1.679688 -4.105469 C 1.699219 -4.371094 1.753906 -4.625 1.851562 -4.859375 C 1.949219 -5.09375 2.085938 -5.300781 2.253906 -5.480469 C 2.421875 -5.65625 2.625 -5.796875 2.859375 -5.898438 C 3.09375 -6 3.359375 -6.054688 3.652344 -6.054688 C 3.9375 -6.054688 4.199219 -6.003906 4.433594 -5.898438 C 4.667969 -5.796875 4.875 -5.660156 5.046875 -5.488281 C 5.21875 -5.3125 5.359375 -5.105469 5.460938 -4.867188 C 5.5625 -4.625 5.621094 -4.375 5.640625 -4.105469 Z M 6.734375 -2.1875 L 5.613281 -2.1875 C 5.515625 -1.734375 5.3125 -1.394531 5.007812 -1.171875 C 4.699219 -0.949219 4.304688 -0.839844 3.828125 -0.839844 C 3.453125 -0.839844 3.128906 -0.902344 2.851562 -1.027344 C 2.578125 -1.152344 2.351562 -1.316406 2.171875 -1.527344 C 1.996094 -1.734375 1.867188 -1.976562 1.785156 -2.246094 C 1.707031 -2.515625 1.671875 -2.804688 1.679688 -3.105469 L 6.839844 -3.105469 C 6.859375 -3.523438 6.820312 -3.964844 6.726562 -4.425781 C 6.632812 -4.886719 6.464844 -5.316406 6.21875 -5.707031 C 5.976562 -6.097656 5.652344 -6.417969 5.246094 -6.671875 C 4.84375 -6.925781 4.332031 -7.054688 3.71875 -7.054688 C 3.25 -7.054688 2.816406 -6.964844 2.421875 -6.785156 C 2.023438 -6.609375 1.683594 -6.359375 1.394531 -6.039062 C 1.105469 -5.71875 0.878906 -5.34375 0.71875 -4.90625 C 0.558594 -4.472656 0.480469 -3.992188 0.480469 -3.464844 C 0.496094 -2.941406 0.574219 -2.457031 0.714844 -2.011719 C 0.851562 -1.566406 1.058594 -1.1875 1.332031 -0.867188 C 1.609375 -0.546875 1.949219 -0.296875 2.351562 -0.121094 C 2.757812 0.0585938 3.234375 0.148438 3.785156 0.148438 C 4.566406 0.148438 5.21875 -0.0507812 5.734375 -0.441406 C 6.25 -0.832031 6.582031 -1.414062 6.734375 -2.1875 Z "/>
</g>
<g id="glyph-0-11">
<path d="M 1.105469 -1.480469 L 1.105469 0 L 1.894531 0 C 1.902344 0.105469 1.894531 0.222656 1.875 0.347656 C 1.851562 0.472656 1.808594 0.59375 1.746094 0.714844 C 1.683594 0.832031 1.601562 0.945312 1.5 1.046875 C 1.398438 1.148438 1.269531 1.226562 1.121094 1.28125 L 1.121094 1.945312 C 1.636719 1.796875 2.007812 1.539062 2.238281 1.171875 C 2.46875 0.808594 2.585938 0.375 2.585938 -0.132812 L 2.585938 -1.480469 Z "/>
</g>
<g id="glyph-0-12">
<path d="M 0.851562 -6.894531 L 0.851562 0 L 1.988281 0 L 1.988281 -3.894531 C 1.988281 -4.203125 2.027344 -4.492188 2.113281 -4.753906 C 2.199219 -5.015625 2.324219 -5.246094 2.492188 -5.441406 C 2.660156 -5.636719 2.875 -5.785156 3.125 -5.894531 C 3.378906 -6 3.679688 -6.054688 4.027344 -6.054688 C 4.460938 -6.054688 4.804688 -5.929688 5.054688 -5.679688 C 5.300781 -5.429688 5.425781 -5.09375 5.425781 -4.667969 L 5.425781 0 L 6.558594 0 L 6.558594 -4.535156 C 6.558594 -4.90625 6.523438 -5.246094 6.445312 -5.554688 C 6.371094 -5.859375 6.238281 -6.125 6.054688 -6.347656 C 5.867188 -6.570312 5.621094 -6.742188 5.320312 -6.867188 C 5.019531 -6.992188 4.640625 -7.054688 4.1875 -7.054688 C 3.164062 -7.054688 2.417969 -6.636719 1.945312 -5.800781 L 1.921875 -5.800781 L 1.921875 -6.894531 Z "/>
</g>
<g id="glyph-0-13">
<path d="M 1.679688 -3.386719 C 1.679688 -3.722656 1.714844 -4.054688 1.785156 -4.375 C 1.855469 -4.695312 1.972656 -4.976562 2.132812 -5.226562 C 2.292969 -5.476562 2.507812 -5.675781 2.773438 -5.828125 C 3.039062 -5.976562 3.363281 -6.054688 3.746094 -6.054688 C 4.136719 -6.054688 4.472656 -5.980469 4.746094 -5.832031 C 5.023438 -5.6875 5.246094 -5.492188 5.417969 -5.253906 C 5.59375 -5.011719 5.71875 -4.734375 5.800781 -4.417969 C 5.878906 -4.105469 5.917969 -3.777344 5.917969 -3.441406 C 5.917969 -3.121094 5.882812 -2.804688 5.804688 -2.492188 C 5.730469 -2.183594 5.609375 -1.90625 5.441406 -1.660156 C 5.273438 -1.414062 5.054688 -1.21875 4.785156 -1.066406 C 4.519531 -0.914062 4.195312 -0.839844 3.8125 -0.839844 C 3.449219 -0.839844 3.132812 -0.910156 2.859375 -1.054688 C 2.589844 -1.195312 2.367188 -1.386719 2.191406 -1.625 C 2.019531 -1.867188 1.890625 -2.140625 1.804688 -2.445312 C 1.722656 -2.753906 1.679688 -3.066406 1.679688 -3.386719 Z M 7.011719 0 L 7.011719 -9.519531 L 5.878906 -9.519531 L 5.878906 -5.972656 L 5.851562 -5.972656 C 5.726562 -6.175781 5.574219 -6.347656 5.394531 -6.488281 C 5.210938 -6.625 5.019531 -6.734375 4.8125 -6.820312 C 4.609375 -6.90625 4.40625 -6.964844 4.199219 -7 C 3.996094 -7.035156 3.804688 -7.054688 3.625 -7.054688 C 3.101562 -7.054688 2.640625 -6.957031 2.246094 -6.765625 C 1.851562 -6.574219 1.523438 -6.316406 1.261719 -5.992188 C 1 -5.667969 0.800781 -5.289062 0.671875 -4.851562 C 0.542969 -4.417969 0.480469 -3.957031 0.480469 -3.464844 C 0.480469 -2.976562 0.546875 -2.515625 0.679688 -2.078125 C 0.8125 -1.644531 1.011719 -1.261719 1.273438 -0.933594 C 1.535156 -0.605469 1.863281 -0.34375 2.261719 -0.148438 C 2.65625 0.046875 3.121094 0.148438 3.652344 0.148438 C 4.132812 0.148438 4.574219 0.0625 4.972656 -0.105469 C 5.371094 -0.273438 5.667969 -0.550781 5.851562 -0.933594 L 5.878906 -0.933594 L 5.878906 0 Z "/>
</g>
<g id="glyph-0-14">
<path d="M 6.546875 -6.734375 L 7.746094 -6.734375 C 7.730469 -7.257812 7.628906 -7.707031 7.445312 -8.085938 C 7.265625 -8.464844 7.015625 -8.777344 6.699219 -9.027344 C 6.382812 -9.277344 6.019531 -9.457031 5.601562 -9.574219 C 5.183594 -9.6875 4.730469 -9.746094 4.238281 -9.746094 C 3.804688 -9.746094 3.378906 -9.691406 2.964844 -9.578125 C 2.550781 -9.46875 2.183594 -9.300781 1.859375 -9.074219 C 1.535156 -8.847656 1.277344 -8.558594 1.078125 -8.207031 C 0.882812 -7.855469 0.785156 -7.441406 0.785156 -6.960938 C 0.785156 -6.523438 0.875 -6.160156 1.046875 -5.875 C 1.21875 -5.585938 1.449219 -5.347656 1.738281 -5.167969 C 2.027344 -4.984375 2.355469 -4.835938 2.71875 -4.726562 C 3.082031 -4.617188 3.457031 -4.519531 3.832031 -4.433594 C 4.210938 -4.347656 4.582031 -4.265625 4.945312 -4.1875 C 5.3125 -4.105469 5.636719 -4.003906 5.925781 -3.875 C 6.214844 -3.746094 6.445312 -3.578125 6.621094 -3.375 C 6.792969 -3.167969 6.878906 -2.902344 6.878906 -2.574219 C 6.878906 -2.226562 6.808594 -1.941406 6.667969 -1.71875 C 6.523438 -1.496094 6.335938 -1.320312 6.105469 -1.191406 C 5.875 -1.0625 5.617188 -0.972656 5.328125 -0.921875 C 5.039062 -0.867188 4.75 -0.839844 4.464844 -0.839844 C 4.109375 -0.839844 3.765625 -0.882812 3.425781 -0.972656 C 3.089844 -1.0625 2.792969 -1.199219 2.539062 -1.386719 C 2.285156 -1.574219 2.082031 -1.8125 1.925781 -2.101562 C 1.769531 -2.390625 1.691406 -2.734375 1.691406 -3.132812 L 0.492188 -3.132812 C 0.492188 -2.554688 0.597656 -2.054688 0.808594 -1.632812 C 1.015625 -1.210938 1.300781 -0.863281 1.660156 -0.59375 C 2.019531 -0.324219 2.4375 -0.121094 2.914062 0.0117188 C 3.390625 0.144531 3.894531 0.214844 4.425781 0.214844 C 4.863281 0.214844 5.300781 0.164062 5.738281 0.0585938 C 6.179688 -0.0429688 6.578125 -0.207031 6.933594 -0.433594 C 7.289062 -0.660156 7.578125 -0.953125 7.804688 -1.3125 C 8.03125 -1.671875 8.144531 -2.105469 8.144531 -2.613281 C 8.144531 -3.085938 8.058594 -3.476562 7.886719 -3.785156 C 7.714844 -4.097656 7.480469 -4.355469 7.191406 -4.558594 C 6.902344 -4.765625 6.578125 -4.925781 6.214844 -5.046875 C 5.847656 -5.167969 5.476562 -5.269531 5.101562 -5.359375 C 4.722656 -5.449219 4.351562 -5.53125 3.988281 -5.605469 C 3.621094 -5.683594 3.296875 -5.777344 3.007812 -5.894531 C 2.71875 -6.007812 2.488281 -6.15625 2.3125 -6.339844 C 2.140625 -6.523438 2.054688 -6.761719 2.054688 -7.054688 C 2.054688 -7.363281 2.113281 -7.625 2.234375 -7.832031 C 2.355469 -8.042969 2.511719 -8.207031 2.714844 -8.332031 C 2.914062 -8.457031 3.140625 -8.546875 3.398438 -8.601562 C 3.65625 -8.652344 3.917969 -8.679688 4.1875 -8.679688 C 4.84375 -8.679688 5.382812 -8.527344 5.804688 -8.21875 C 6.226562 -7.914062 6.476562 -7.417969 6.546875 -6.734375 Z "/>
</g>
<g id="glyph-0-15">
<path d="M 0.921875 -9.519531 L 0.921875 0 L 2.054688 0 L 2.054688 -9.519531 Z "/>
</g>
<g id="glyph-0-16">
<path d="M 1.773438 -4.761719 C 1.773438 -5.242188 1.835938 -5.714844 1.960938 -6.179688 C 2.085938 -6.644531 2.28125 -7.066406 2.546875 -7.441406 C 2.8125 -7.8125 3.15625 -8.113281 3.574219 -8.339844 C 3.992188 -8.566406 4.488281 -8.679688 5.066406 -8.679688 C 5.644531 -8.679688 6.140625 -8.566406 6.558594 -8.339844 C 6.976562 -8.113281 7.320312 -7.8125 7.585938 -7.441406 C 7.851562 -7.066406 8.046875 -6.648438 8.171875 -6.179688 C 8.296875 -5.714844 8.359375 -5.238281 8.359375 -4.761719 C 8.359375 -4.28125 8.296875 -3.804688 8.171875 -3.339844 C 8.046875 -2.875 7.851562 -2.453125 7.585938 -2.078125 C 7.320312 -1.707031 6.976562 -1.40625 6.558594 -1.179688 C 6.140625 -0.953125 5.644531 -0.839844 5.066406 -0.839844 C 4.488281 -0.839844 3.992188 -0.953125 3.574219 -1.179688 C 3.15625 -1.40625 2.8125 -1.707031 2.546875 -2.078125 C 2.28125 -2.453125 2.085938 -2.875 1.960938 -3.339844 C 1.835938 -3.804688 1.773438 -4.28125 1.773438 -4.761719 Z M 0.507812 -4.761719 C 0.507812 -4.113281 0.601562 -3.488281 0.792969 -2.886719 C 0.984375 -2.285156 1.269531 -1.753906 1.652344 -1.292969 C 2.035156 -0.832031 2.511719 -0.464844 3.078125 -0.191406 C 3.648438 0.078125 4.3125 0.214844 5.066406 0.214844 C 5.820312 0.214844 6.484375 0.078125 7.054688 -0.191406 C 7.621094 -0.464844 8.097656 -0.832031 8.480469 -1.292969 C 8.863281 -1.753906 9.148438 -2.285156 9.339844 -2.886719 C 9.53125 -3.488281 9.625 -4.109375 9.625 -4.761719 C 9.625 -5.410156 9.53125 -6.03125 9.339844 -6.632812 C 9.148438 -7.234375 8.863281 -7.765625 8.480469 -8.226562 C 8.097656 -8.6875 7.621094 -9.058594 7.054688 -9.332031 C 6.484375 -9.609375 5.820312 -9.746094 5.066406 -9.746094 C 4.3125 -9.746094 3.648438 -9.609375 3.078125 -9.332031 C 2.511719 -9.058594 2.035156 -8.6875 1.652344 -8.226562 C 1.269531 -7.765625 0.984375 -7.234375 0.792969 -6.632812 C 0.601562 -6.03125 0.507812 -5.410156 0.507812 -4.761719 Z "/>
</g>
<g id="glyph-0-17">
<path d="M 0.894531 -6.894531 L 0.894531 2.625 L 2.027344 2.625 L 2.027344 -0.921875 L 2.054688 -0.921875 C 2.179688 -0.714844 2.332031 -0.542969 2.511719 -0.40625 C 2.695312 -0.269531 2.890625 -0.160156 3.09375 -0.078125 C 3.296875 0 3.503906 0.0585938 3.714844 0.09375 C 3.921875 0.128906 4.109375 0.148438 4.28125 0.148438 C 4.804688 0.148438 5.265625 0.0546875 5.660156 -0.132812 C 6.054688 -0.320312 6.382812 -0.574219 6.648438 -0.898438 C 6.910156 -1.222656 7.105469 -1.605469 7.234375 -2.039062 C 7.363281 -2.476562 7.425781 -2.9375 7.425781 -3.425781 C 7.425781 -3.914062 7.359375 -4.378906 7.226562 -4.8125 C 7.09375 -5.25 6.894531 -5.632812 6.632812 -5.964844 C 6.371094 -6.300781 6.042969 -6.5625 5.648438 -6.761719 C 5.25 -6.957031 4.785156 -7.054688 4.253906 -7.054688 C 3.773438 -7.054688 3.332031 -6.964844 2.933594 -6.792969 C 2.535156 -6.621094 2.238281 -6.34375 2.054688 -5.960938 L 2.027344 -5.960938 L 2.027344 -6.894531 Z M 6.226562 -3.507812 C 6.226562 -3.167969 6.191406 -2.839844 6.121094 -2.519531 C 6.050781 -2.199219 5.933594 -1.914062 5.773438 -1.667969 C 5.613281 -1.417969 5.402344 -1.21875 5.140625 -1.066406 C 4.878906 -0.914062 4.550781 -0.839844 4.160156 -0.839844 C 3.769531 -0.839844 3.433594 -0.914062 3.160156 -1.058594 C 2.882812 -1.207031 2.660156 -1.398438 2.488281 -1.640625 C 2.3125 -1.878906 2.1875 -2.15625 2.105469 -2.472656 C 2.027344 -2.789062 1.988281 -3.117188 1.988281 -3.453125 C 1.988281 -3.773438 2.023438 -4.089844 2.101562 -4.398438 C 2.175781 -4.710938 2.296875 -4.988281 2.464844 -5.234375 C 2.636719 -5.476562 2.851562 -5.675781 3.121094 -5.828125 C 3.386719 -5.976562 3.710938 -6.054688 4.09375 -6.054688 C 4.457031 -6.054688 4.777344 -5.980469 5.046875 -5.839844 C 5.316406 -5.699219 5.539062 -5.507812 5.714844 -5.265625 C 5.886719 -5.027344 6.015625 -4.753906 6.101562 -4.445312 C 6.183594 -4.140625 6.226562 -3.828125 6.226562 -3.507812 Z "/>
</g>
</g>
<image id="source-8" x="0" y="0" width="0" height="0"/>
<mask id="mask-0">
<use xlink:href="#source-8"/>
</mask>
</defs>
<g fill="rgb(100%, 100%, 0%)" fill-opacity="1">
<use xlink:href="#glyph-0-0" x="30" y="32.693359"/>
<use xlink:href="#glyph-0-1" x="42" y="32.693359"/>
<use xlink:href="#glyph-0-2" x="49" y="32.693359"/>
<use xlink:href="#glyph-0-3" x="56" y="32.693359"/>
<use xlink:href="#glyph-0-4" x="60" y="32.693359"/>
<use xlink:href="#glyph-0-5" x="64" y="32.693359"/>
<use xlink:href="#glyph-0-6" x="67" y="32.693359"/>
<use xlink:href="#glyph-0-4" x="74" y="32.693359"/>
<use xlink:href="#glyph-0-7" x="78" y="32.693359"/>
<use xlink:href="#glyph-0-8" x="85" y="32.693359"/>
<use xlink:href="#glyph-0-9" x="88" y="32.693359"/>
<use xlink:href="#glyph-0-10" x="95" y="32.693359"/>
<use xlink:href="#glyph-0-11" x="102" y="32.693359"/>
<use xlink:href="#glyph-0-4" x="106" y="32.693359"/>
<use xlink:href="#glyph-0-2" x="110" y="32.693359"/>
<use xlink:href="#glyph-0-12" x="117" y="32.693359"/>
<use xlink:href="#glyph-0-13" x="124" y="32.693359"/>
<use xlink:href="#glyph-0-4" x="132" y="32.693359"/>
<use xlink:href="#glyph-0-0" x="136" y="32.693359"/>
<use xlink:href="#glyph-0-1" x="148" y="32.693359"/>
<use xlink:href="#glyph-0-2" x="155" y="32.693359"/>
<use xlink:href="#glyph-0-3" x="162" y="32.693359"/>
<use xlink:href="#glyph-0-4" x="166" y="32.693359"/>
<use xlink:href="#glyph-0-5" x="170" y="32.693359"/>
<use xlink:href="#glyph-0-6" x="173" y="32.693359"/>
<use xlink:href="#glyph-0-4" x="180" y="32.693359"/>
<use xlink:href="#glyph-0-14" x="184" y="32.693359"/>
<use xlink:href="#glyph-0-3" x="193" y="32.693359"/>
<use xlink:href="#glyph-0-8" x="197" y="32.693359"/>
<use xlink:href="#glyph-0-15" x="200" y="32.693359"/>
<use xlink:href="#glyph-0-15" x="203" y="32.693359"/>
<use xlink:href="#glyph-0-4" x="206" y="32.693359"/>
<use xlink:href="#glyph-0-16" x="210" y="32.693359"/>
<use xlink:href="#glyph-0-17" x="220" y="32.693359"/>
<use xlink:href="#glyph-0-10" x="228" y="32.693359"/>
<use xlink:href="#glyph-0-12" x="235" y="32.693359"/>
</g>
</svg>
