<?xml version="1.0" encoding="UTF-8"?>
<svg xmlns="http://www.w3.org/2000/svg" xmlns:xlink="http://www.w3.org/1999/xlink" width="854" height="480" viewBox="0 0 854 480">
<defs>
<g>
<g id="glyph-0-0">
<path d="M 4.226562 -0.835938 C 4.476562 -0.921875 4.726562 -1.09375 4.972656 -1.347656 C 5.304688 -1.695312 5.472656 -2.199219 5.472656 -2.859375 L 5.472656 -6.683594 L 6.578125 -6.683594 L 6.578125 -2.816406 C 6.578125 -1.957031 6.316406 -1.238281 5.800781 -0.664062 C 5.320312 -0.125 4.792969 0.144531 4.226562 0.148438 L 4.226562 2.542969 L 3.132812 2.542969 L 3.132812 0.148438 C 2.5625 0.144531 2.039062 -0.125 1.558594 -0.664062 C 1.039062 -1.238281 0.78125 -1.957031 0.78125 -2.816406 L 0.78125 -6.683594 L 1.886719 -6.683594 L 1.886719 -2.859375 C 1.886719 -2.199219 2.054688 -1.695312 2.386719 -1.347656 C 2.632812 -1.09375 2.882812 -0.921875 3.132812 -0.835938 L 3.132812 -6.683594 L 4.226562 -6.683594 Z "/>
</g>
<g id="glyph-0-1">
<path d="M 7.304688 1.132812 L 7.304688 2.148438 L 0 2.148438 L 0 1.132812 Z "/>
</g>
<g id="glyph-0-2">
<path d="M 1.28125 -8.910156 L 2.496094 -8.910156 L 2.496094 -1.015625 L 6.796875 -1.015625 L 6.796875 0 L 1.28125 0 Z "/>
</g>
</g>
</defs>
<g fill="rgb(34.509804%, 76.862745%, 86.666667%)" fill-opacity="1">
<use xlink:href="#glyph-0-0" x="30" y="31.345703"/>
<use xlink:href="#glyph-0-1" x="37" y="31.345703"/>
</g>
<g fill="rgb(34.509804%, 76.862745%, 86.666667%)" fill-opacity="1">
<use xlink:href="#glyph-0-2" x="44" y="31.345703"/>
</g>
</svg>
