<?xml version="1.0" encoding="UTF-8"?>
<svg xmlns="http://www.w3.org/2000/svg" xmlns:xlink="http://www.w3.org/1999/xlink" width="854" height="480" viewBox="0 0 854 480">
<defs>
<g>
<g id="glyph-0-0">
<path d="M 4.226562 -0.835938 C 4.476562 -0.921875 4.726562 -1.09375 4.972656 -1.347656 C 5.304688 -1.695312 5.472656 -2.199219 5.472656 -2.859375 L 5.472656 -6.683594 L 6.578125 -6.683594 L 6.578125 -2.816406 C 6.578125 -1.957031 6.316406 -1.238281 5.800781 -0.664062 C 5.320312 -0.125 4.792969 0.144531 4.226562 0.148438 L 4.226562 2.542969 L 3.132812 2.542969 L 3.132812 0.148438 C 2.5625 0.144531 2.039062 -0.125 1.558594 -0.664062 C 1.039062 -1.238281 0.78125 -1.957031 0.78125 -2.816406 L 0.78125 -6.683594 L 1.886719 -6.683594 L 1.886719 -2.859375 C 1.886719 -2.199219 2.054688 -1.695312 2.386719 -1.347656 C 2.632812 -1.09375 2.882812 -0.921875 3.132812 -0.835938 L 3.132812 -6.683594 L 4.226562 -6.683594 Z "/>
</g>
<g id="glyph-0-1">
<path d="M 7.304688 1.132812 L 7.304688 2.148438 L 0 2.148438 L 0 1.132812 Z "/>
</g>
<g id="glyph-0-2">
<path d="M 4.535156 -4.207031 C 4.847656 -4.128906 5.109375 -3.976562 5.328125 -3.757812 C 5.546875 -3.535156 5.820312 -3.09375 6.148438 -2.433594 L 7.359375 0 L 6.0625 0 L 5 -2.25 C 4.695312 -2.890625 4.417969 -3.304688 4.175781 -3.488281 C 3.929688 -3.671875 3.609375 -3.765625 3.21875 -3.765625 L 2.066406 -3.765625 L 2.066406 0 L 0.851562 0 L 0.851562 -8.910156 L 3.335938 -8.910156 C 4.316406 -8.910156 5.066406 -8.691406 5.585938 -8.246094 C 6.105469 -7.804688 6.367188 -7.167969 6.367188 -6.332031 C 6.367188 -5.742188 6.207031 -5.261719 5.886719 -4.890625 C 5.566406 -4.519531 5.117188 -4.292969 4.535156 -4.207031 Z M 2.066406 -7.917969 L 2.066406 -4.757812 L 3.382812 -4.757812 C 3.960938 -4.757812 4.390625 -4.886719 4.671875 -5.144531 C 4.957031 -5.402344 5.097656 -5.800781 5.097656 -6.332031 C 5.097656 -6.84375 4.945312 -7.238281 4.644531 -7.511719 C 4.34375 -7.785156 3.910156 -7.917969 3.335938 -7.917969 Z "/>
</g>
</g>
</defs>
<g fill="rgb(100%, 41.960784%, 41.960784%)" fill-opacity="1">
<use xlink:href="#glyph-0-0" x="30" y="31.345703"/>
<use xlink:href="#glyph-0-1" x="37" y="31.345703"/>
</g>
<g fill="rgb(100%, 41.960784%, 41.960784%)" fill-opacity="1">
<use xlink:href="#glyph-0-2" x="44" y="31.345703"/>
</g>
</svg>
