<?xml version="1.0" encoding="UTF-8"?>
<svg xmlns="http://www.w3.org/2000/svg" xmlns:xlink="http://www.w3.org/1999/xlink" width="854" height="480" viewBox="0 0 854 480">
<defs>
<g>
<g id="glyph-0-0">
<path d="M 2.511719 -0.421875 C 2.675781 -0.433594 2.828125 -0.46875 2.960938 -0.523438 C 3.09375 -0.578125 3.207031 -0.664062 3.300781 -0.777344 C 3.394531 -0.890625 3.464844 -1.035156 3.515625 -1.207031 C 3.566406 -1.378906 3.59375 -1.585938 3.59375 -1.828125 C 3.59375 -1.9375 3.585938 -2.0625 3.570312 -2.199219 C 3.554688 -2.335938 3.53125 -2.476562 3.496094 -2.621094 C 3.464844 -2.761719 3.421875 -2.90625 3.367188 -3.046875 C 3.3125 -3.1875 3.25 -3.324219 3.179688 -3.445312 L 3.773438 -3.445312 C 3.839844 -3.328125 3.898438 -3.195312 3.945312 -3.058594 C 3.996094 -2.917969 4.035156 -2.777344 4.0625 -2.632812 C 4.09375 -2.492188 4.113281 -2.351562 4.125 -2.214844 C 4.140625 -2.074219 4.148438 -1.953125 4.148438 -1.839844 C 4.148438 -1.226562 4 -0.761719 3.703125 -0.441406 C 3.40625 -0.121094 3.011719 0.0546875 2.511719 0.078125 L 2.511719 1.320312 L 1.945312 1.320312 L 1.945312 0.078125 C 1.667969 0.0625 1.429688 0.0078125 1.238281 -0.0859375 C 1.042969 -0.179688 0.886719 -0.300781 0.765625 -0.453125 C 0.644531 -0.605469 0.558594 -0.777344 0.507812 -0.976562 C 0.453125 -1.175781 0.425781 -1.386719 0.425781 -1.613281 L 0.425781 -3.445312 L 0.992188 -3.445312 L 0.992188 -1.660156 C 0.992188 -1.488281 1.007812 -1.328125 1.039062 -1.179688 C 1.070312 -1.035156 1.125 -0.90625 1.195312 -0.800781 C 1.269531 -0.695312 1.367188 -0.609375 1.488281 -0.542969 C 1.613281 -0.480469 1.765625 -0.4375 1.945312 -0.421875 L 1.945312 -4.433594 L 2.511719 -4.433594 Z "/>
</g>
<g id="glyph-0-1">
<path d="M 0 0.492188 L 0 0.828125 L 3.332031 0.828125 L 3.332031 0.492188 Z "/>
</g>
<g id="glyph-0-2">
<path d="M 0.519531 -4.761719 L 0.519531 0 L 3.671875 0 L 3.671875 -0.535156 L 1.152344 -0.535156 L 1.152344 -4.761719 Z "/>
</g>
</g>
</defs>
<g fill="rgb(34.509804%, 76.862745%, 86.666667%)" fill-opacity="1">
<use xlink:href="#glyph-0-0" x="30" y="26.34668"/>
<use xlink:href="#glyph-0-1" x="34" y="26.34668"/>
</g>
<g fill="rgb(34.509804%, 76.862745%, 86.666667%)" fill-opacity="1">
<use xlink:href="#glyph-0-2" x="37" y="26.34668"/>
</g>
</svg>
